<?xml version="1.0" encoding="utf-8"?>
<!-- Generator: Adobe Illustrator 16.0.0, SVG Export Plug-In . SVG Version: 6.00 Build 0)  -->
<!DOCTYPE svg PUBLIC "-//W3C//DTD SVG 1.1//EN" "http://www.w3.org/Graphics/SVG/1.1/DTD/svg11.dtd">
<svg version="1.1" id="Layer_1" xmlns="http://www.w3.org/2000/svg" xmlns:xlink="http://www.w3.org/1999/xlink" x="0px" y="0px"
	 width="600px" height="800px" viewBox="0 0 600 800" enable-background="new 0 0 600 800" xml:space="preserve">
<rect x="-0.129" y="739.961" fill="#ABAFAB" stroke="#FFFFFF" stroke-miterlimit="10" width="600.129" height="60.039"/>
<rect x="0.032" y="684.972" fill="#49494A" stroke="#FFFFFF" stroke-miterlimit="10" width="599.968" height="54.989"/>
<rect x="-0.135" y="629.982" fill="#49494A" stroke="#FFFFFF" stroke-miterlimit="10" width="600.135" height="54.989"/>
<rect x="-0.125" y="574.98" fill="#49494A" stroke="#FFFFFF" stroke-miterlimit="10" width="600.125" height="55.002"/>
<rect y="519.974" fill="#49494A" stroke="#FFFFFF" stroke-miterlimit="10" width="600" height="55.007"/>
<rect y="464.969" fill="#49494A" stroke="#FFFFFF" stroke-miterlimit="10" width="600" height="55.005"/>
<rect x="-0.125" y="404.969" fill="#ABAFAB" stroke="#FFFFFF" stroke-miterlimit="10" width="600.125" height="60"/>
<rect x="-0.125" y="349.969" fill="#49494A" stroke="#FFFFFF" stroke-miterlimit="10" width="600" height="55"/>
<rect x="-0.125" y="294.969" fill="#49494A" stroke="#FFFFFF" stroke-miterlimit="10" width="600" height="55"/>
<rect y="239.969" fill="#49494A" stroke="#FFFFFF" stroke-miterlimit="10" width="599.875" height="55"/>
<rect y="184.969" fill="#49494A" stroke="#FFFFFF" stroke-miterlimit="10" width="600" height="55"/>
<rect x="-0.125" y="129.969" fill="#49494A" stroke="#FFFFFF" stroke-miterlimit="10" width="600.125" height="55"/>
<rect x="-0.125" y="1.969" fill="#70C385" stroke="#FFFFFF" stroke-miterlimit="10" width="600.125" height="128"/>
<g>
	<g>
		<line fill="none" stroke="#E6E74D" stroke-miterlimit="10" x1="0" y1="158.271" x2="6" y2="158.286"/>
		<line fill="none" stroke="#E6E74D" stroke-miterlimit="10" stroke-dasharray="12,12" x1="18" y1="158.315" x2="588" y2="159.74"/>
		<line fill="none" stroke="#E6E74D" stroke-miterlimit="10" x1="594" y1="159.754" x2="600" y2="159.77"/>
	</g>
</g>
<g>
	<g>
		<line fill="none" stroke="#E6E74D" stroke-miterlimit="10" x1="0" y1="213.271" x2="6" y2="213.286"/>
		<line fill="none" stroke="#E6E74D" stroke-miterlimit="10" stroke-dasharray="12,12" x1="18" y1="213.315" x2="588" y2="214.74"/>
		<line fill="none" stroke="#E6E74D" stroke-miterlimit="10" x1="594" y1="214.754" x2="600" y2="214.77"/>
	</g>
</g>
<g>
	<g>
		<line fill="none" stroke="#E6E74D" stroke-miterlimit="10" x1="0" y1="268.271" x2="6" y2="268.286"/>
		<line fill="none" stroke="#E6E74D" stroke-miterlimit="10" stroke-dasharray="12,12" x1="18" y1="268.315" x2="588" y2="269.74"/>
		<line fill="none" stroke="#E6E74D" stroke-miterlimit="10" x1="594" y1="269.754" x2="600" y2="269.77"/>
	</g>
</g>
<g>
	<g>
		<line fill="none" stroke="#E6E74D" stroke-miterlimit="10" x1="0" y1="322.271" x2="6" y2="322.286"/>
		<line fill="none" stroke="#E6E74D" stroke-miterlimit="10" stroke-dasharray="12,12" x1="18" y1="322.315" x2="588" y2="323.74"/>
		<line fill="none" stroke="#E6E74D" stroke-miterlimit="10" x1="594" y1="323.754" x2="600" y2="323.77"/>
	</g>
</g>
<g>
	<g>
		<line fill="none" stroke="#E6E74D" stroke-miterlimit="10" x1="-3" y1="377.271" x2="3" y2="377.286"/>
		<line fill="none" stroke="#E6E74D" stroke-miterlimit="10" stroke-dasharray="12,12" x1="15" y1="377.315" x2="585" y2="378.74"/>
		<line fill="none" stroke="#E6E74D" stroke-miterlimit="10" x1="591" y1="378.754" x2="597" y2="378.77"/>
	</g>
</g>
<g>
	<g>
		<line fill="none" stroke="#E6E74D" stroke-miterlimit="10" x1="0" y1="494.271" x2="6" y2="494.285"/>
		<line fill="none" stroke="#E6E74D" stroke-miterlimit="10" stroke-dasharray="12,12" x1="18" y1="494.315" x2="588" y2="495.74"/>
		<line fill="none" stroke="#E6E74D" stroke-miterlimit="10" x1="594" y1="495.754" x2="600" y2="495.77"/>
	</g>
</g>
<g>
	<g>
		<line fill="none" stroke="#E6E74D" stroke-miterlimit="10" x1="0" y1="547.271" x2="6" y2="547.285"/>
		<line fill="none" stroke="#E6E74D" stroke-miterlimit="10" stroke-dasharray="12,12" x1="18" y1="547.315" x2="588" y2="548.74"/>
		<line fill="none" stroke="#E6E74D" stroke-miterlimit="10" x1="594" y1="548.754" x2="600" y2="548.77"/>
	</g>
</g>
<g>
	<g>
		<line fill="none" stroke="#E6E74D" stroke-miterlimit="10" x1="0" y1="604.271" x2="6" y2="604.285"/>
		<line fill="none" stroke="#E6E74D" stroke-miterlimit="10" stroke-dasharray="12,12" x1="18" y1="604.315" x2="588" y2="605.74"/>
		<line fill="none" stroke="#E6E74D" stroke-miterlimit="10" x1="594" y1="605.754" x2="600" y2="605.77"/>
	</g>
</g>
<g>
	<g>
		<line fill="none" stroke="#E6E74D" stroke-miterlimit="10" x1="0" y1="658.271" x2="6" y2="658.285"/>
		<line fill="none" stroke="#E6E74D" stroke-miterlimit="10" stroke-dasharray="12,12" x1="18" y1="658.315" x2="588" y2="659.74"/>
		<line fill="none" stroke="#E6E74D" stroke-miterlimit="10" x1="594" y1="659.754" x2="600" y2="659.77"/>
	</g>
</g>
<g>
	<g>
		<line fill="none" stroke="#E6E74D" stroke-miterlimit="10" x1="0" y1="712.271" x2="6" y2="712.285"/>
		<line fill="none" stroke="#E6E74D" stroke-miterlimit="10" stroke-dasharray="12,12" x1="18" y1="712.315" x2="588" y2="713.74"/>
		<line fill="none" stroke="#E6E74D" stroke-miterlimit="10" x1="594" y1="713.754" x2="600" y2="713.77"/>
	</g>
</g>
<ellipse fill="#90BECC" cx="307.093" cy="-5.633" rx="356.982" ry="95.245"/>
<path fill="#6FC285" d="M5.135,32.23c2.386,6.071,8.811,10.373,10.067,16.554c0.189-2.331,0.928-3.354,1.817-5.06
	c0.665,3.117,2.046,6.178,2.918,9.225c5.822-4.53,13.341-7.692,20.495-10.375c0.506,5.751-5.212,11.139-5.278,17.578
	c0.785-2.928,3.465-5.045,5.878-6.43c-0.737,0.423,0.714,5.158,0.009,6.142c-1.284,1.79-3.172,0.805-5.059,1.336
	c-4.659,1.312-12.22,1.115-16.834-0.33c-4.801-1.505-11.762-7.881-13.197-12.782C4.613,43.519,7.073,37.161,5.135,32.23z"/>
<path fill="#6FC285" d="M258.89,86.841c0.36-0.856,1.062-1.71,0.553-3.22c-0.081-0.157-0.956-1.746-1.119-2.013
	c2.453,0.649,5.512,4.377,7.262,7.031c-0.018-2.344-0.044-4.69-0.08-7.034c1.157,3.121,3.219,5.814,5.248,8.367
	c0.292-3.858,1.588-9.247-0.596-12.195c2.097,2.954,5.663,5.584,6.712,8.861c1.132-2.601,3.062-4.815,5.22-6.396
	c0.145,2.998,1.028,5.783,2.298,8.558c5.615-7.13,6.533-11.907,11.203-2.198c1.485-7.157,3.104-14.028-2.749-19.51
	c2.524,7.183,10.351,10.213,9.982,18.846c0.939-1.289,2.957-2.493,3.93-3.695c4.768,14.906-40.553,18.814-46.531,5.264"/>
<path fill="#6FC285" d="M581.168,57.004c-0.562-4.792,0.798-9.667,0.551-14.55c-0.879-0.537-1.604-1.351-2.468-1.865
	c5.24,6.435,11.071,4.598,10.734,14.377c2.379-4.255,2.502-17.084-0.73-21.028c3.285,1.755,7.95,5.127,8.614,8.83
	c0.732-5.275-3.247-10.484-5.435-14.827c7.401,6.159,14.978,17.977,6.197,27.243c-5.788,6.108-23.316,11.602-23.363-1.413
	c3.124-0.833,6.424,0.203,7.232,3.232"/>
<path fill="#6FC285" d="M520.501,73.671c-0.466-4.048,1.209-7.728,0.637-11.812c1.995,2.943,5.028,5.503,6.043,8.943
	c0.935-6.843-6.052-11.543-11.159-14.525c8.598,2.761,17.526,4.487,18.495,15.192c0.354-4.25,0.16-10.212-3.162-13.177
	c4.591,0.245,12.641,5.553,13.564,10.241c-9.493,4.141-16.621,13.027-25.084,3.804"/>
<path fill="#6FC285" d="M9.168,47.004c0-5.716-0.215-11.549,0.116-17.217c2.312-1.318,5.063-3.209,7.164-3.968
	C2.291,23.093-4.505,53.727,10.4,52.901c0.738-2.653,0.297-5.129-1.899-6.563"/>
<path fill="#6FC285" d="M441.168,89.004c-0.071-3.887-3.935-7.653-5.85-10.616c0.135,2.458-0.021,4.98-1.466,6.698
	c-1.705-2.035-2.193-5.109-4.57-5.994c-0.388,2.153-1.483,3.916-2.244,5.843c-0.894-1.713-2.34-3.355-4.404-4.534
	c-0.912,3.278-3.324,6.702-5.931,9.166c7.75,0.381,15.931,0.404,23.697,0.002c-0.471-2.103,1.103-1.735,1.435-2.566"/>
<g id="XMLID_1116_">
	<g id="XMLID_1077_">
		<path fill="#9F9F9F" d="M565.999,439.526c0-4.256,3.449-7.706,7.705-7.706c4.255,0,7.704,3.45,7.704,7.706"/>
	</g>
	<g id="XMLID_981_">
		<path fill="#878787" d="M565.999,439.526c0-4.256,2.638-7.706,5.892-7.706s7.252,3.45,7.252,7.706"/>
	</g>
	<g id="XMLID_1062_">
		<polygon fill="#878787" points="566.451,436.354 562.373,436.354 558.293,438.166 558.293,439.526 565.999,439.526 		"/>
	</g>
	<g id="XMLID_1076_">
		<circle fill="#9F9F9F" cx="576.876" cy="438.619" r="2.72"/>
	</g>
	<g id="XMLID_224_">
		<path fill="#1D1D1B" d="M584.581,439.967h-2.266v-0.882h2.266c0.507,0,0.919-0.412,0.919-0.919v-4.985
			c0-0.507-0.412-0.92-0.919-0.92h-2.72c-0.992,0-1.8-0.807-1.8-1.8v-4.532c0-0.507-0.412-0.919-0.919-0.919v-0.882
			c0.993,0,1.801,0.808,1.801,1.801v4.532c0,0.507,0.411,0.919,0.918,0.919h2.72c0.993,0,1.801,0.808,1.801,1.801v4.985
			C586.382,439.159,585.574,439.967,584.581,439.967z"/>
	</g>
	<path fill="#1D1D1B" d="M573.704,431.357c-4.345,0-7.905,3.419-8.135,7.706l-6.835,0.021v-0.653l3.731-1.659h3.067v-2.685h-0.882
		v1.804h-2.373l-4.426,1.967v2.11l8.587-0.024v-0.439c0-4.006,3.259-7.264,7.265-7.264c3.858,0,7.024,3.024,7.25,6.828l-0.918,0.011
		v-0.913c0-1.742-1.418-3.16-3.16-3.16s-3.16,1.418-3.16,3.16c0,1.593,1.185,2.914,2.72,3.13v0.056h-2.731v0.881h3.613v-1.788
		h-0.441c-1.256,0-2.278-1.021-2.278-2.278s1.022-2.278,2.278-2.278c1.257,0,2.279,1.021,2.279,2.278v1.806l1.812-0.021v0.028h0.882
		v-0.475C581.85,435.013,578.195,431.357,573.704,431.357z"/>
	<g id="XMLID_221_">
		<polygon fill="#1D1D1B" points="567.594,442.232 565.092,442.232 565.092,441.352 567.122,441.352 569.711,437.468 
			570.444,437.957 		"/>
	</g>
	<g id="XMLID_228_">
		<rect x="570.077" y="439.085" fill="#1D1D1B" width="3.173" height="0.882"/>
	</g>
	<g id="XMLID_229_">
		<rect x="563.279" y="437.271" fill="#FFFFFF" width="0.906" height="0.882"/>
	</g>
	<g id="XMLID_230_">
		<rect x="562.838" y="433.181" fill="#1D1D1B" width="0.882" height="2.266"/>
	</g>
</g>
<g id="XMLID_1_">
	<g id="XMLID_10_">
		<path fill="#9F9F9F" d="M38.661,781.51c0-4.256-3.431-7.706-7.665-7.706c-4.233,0-7.665,3.45-7.665,7.706"/>
	</g>
	<g id="XMLID_9_">
		<path fill="#878787" d="M38.661,781.51c0-4.256-2.624-7.706-5.861-7.706c-3.237,0-7.214,3.45-7.214,7.706"/>
	</g>
	<g id="XMLID_8_">
		<polygon fill="#878787" points="38.211,778.337 42.269,778.337 46.328,780.149 46.328,781.51 38.661,781.51 		"/>
	</g>
	<g id="XMLID_7_">
		<ellipse fill="#9F9F9F" cx="27.84" cy="780.603" rx="2.706" ry="2.72"/>
	</g>
	<g id="XMLID_6_">
		<path fill="#1D1D1B" d="M20.175,781.95h2.254v-0.882h-2.254c-0.504,0-0.914-0.412-0.914-0.919v-4.985
			c0-0.507,0.41-0.92,0.914-0.92h2.706c0.987,0,1.791-0.807,1.791-1.8v-4.532c0-0.507,0.41-0.919,0.914-0.919v-0.882
			c-0.988,0-1.792,0.808-1.792,1.801v4.532c0,0.507-0.409,0.919-0.913,0.919h-2.706c-0.988,0-1.792,0.808-1.792,1.801v4.985
			C18.384,781.143,19.187,781.95,20.175,781.95z"/>
	</g>
	<path fill="#1D1D1B" d="M30.996,773.341c4.322,0,7.864,3.419,8.093,7.706l6.799,0.021v-0.653l-3.712-1.659h-3.052v-2.685h0.877
		v1.804h2.361l4.402,1.967v2.11l-8.542-0.024v-0.439c0-4.006-3.242-7.264-7.227-7.264c-3.838,0-6.988,3.024-7.213,6.828l0.914,0.011
		v-0.913c0-1.742,1.411-3.16,3.144-3.16c1.733,0,3.144,1.418,3.144,3.16c0,1.593-1.179,2.914-2.706,3.13v0.056h2.717v0.881h-3.595
		v-1.788h0.439c1.25,0,2.267-1.021,2.267-2.278s-1.017-2.278-2.267-2.278c-1.25,0-2.268,1.021-2.268,2.278v1.806l-1.803-0.021v0.028
		h-0.877v-0.475C22.893,776.996,26.528,773.341,30.996,773.341z"/>
	<g id="XMLID_5_">
		<polygon fill="#1D1D1B" points="37.075,784.216 39.564,784.216 39.564,783.335 37.544,783.335 34.969,779.451 34.239,779.94 		"/>
	</g>
	<g id="XMLID_4_">
		<rect x="31.448" y="781.068" fill="#1D1D1B" width="3.156" height="0.882"/>
	</g>
	<g id="XMLID_3_">
		<rect x="40.465" y="779.255" fill="#FFFFFF" width="0.901" height="0.882"/>
	</g>
	<g id="XMLID_2_">
		<rect x="40.929" y="775.164" fill="#1D1D1B" width="0.877" height="2.266"/>
	</g>
</g>
</svg>
