<?xml version="1.0" encoding="utf-8"?>
<!-- Generator: Adobe Illustrator 16.0.0, SVG Export Plug-In . SVG Version: 6.00 Build 0)  -->
<!DOCTYPE svg PUBLIC "-//W3C//DTD SVG 1.1//EN" "http://www.w3.org/Graphics/SVG/1.1/DTD/svg11.dtd">
<svg version="1.1" id="Layer_1" xmlns="http://www.w3.org/2000/svg" xmlns:xlink="http://www.w3.org/1999/xlink" x="0px" y="0px"
	 width="500px" height="600px" viewBox="0 0 500 600" enable-background="new 0 0 500 600" xml:space="preserve">
<rect x="751.463" y="439.495" fill-rule="evenodd" clip-rule="evenodd" width="585" height="284"/>
<path fill-rule="evenodd" clip-rule="evenodd" d="M726.136,446.61c0-15.453,0-30.758,0-46.375c2.122,0,4.13,0.084,6.125-0.027
	c1.407-0.08,2.868-0.227,4.185-0.688c5.815-2.031,11.843-2.439,17.917-2.566c0.423-0.01,0.848-0.045,1.264-0.002
	c2.585,0.27,4.78-0.471,6.554-2.416c0.911-1.002,2.078-1.289,3.426-1.223c1.757,0.084,3.521,0.02,5.309,0.02
	c0.223-0.799,0.398-1.432,0.621-2.24c1.215-0.068,2.449-0.137,3.971-0.223c0-2.977,0-5.963,0-8.973
	c0.986-0.238,1.708-0.414,2.613-0.635c0.062-0.588,0.188-1.232,0.195-1.875c0.025-2.021,0.07-4.047,0-6.064
	c-0.243-6.93,1.172-13.411,4.859-19.368c0.521-0.842,0.482-2.09,0.521-3.156c0.086-2.244-0.673-4.514,0.332-6.74
	c0.143-0.316-0.107-1.031-0.411-1.287c-1.3-1.105-1.018-2.521-0.426-3.619c0.587-1.094,0.553-2.029,0.399-3.127
	c-0.232-1.664-0.436-3.344-0.512-5.02c-0.088-1.93-0.162-3.869,1.115-5.572c0.32-0.43,0.378-1.098,0.439-1.672
	c0.227-2.094,0.336-4.199,0.621-6.283c0.256-1.861,0.412-3.648-0.932-4.832c1.045-1.584,1.971-2.986,3.006-4.552
	c0.225,0.333,0.793,0.796,0.736,1.164c-0.201,1.341,0.488,2.14,1.389,2.716c0,0.258,0.035,0.372-0.008,0.418
	c-3.186,3.681-2.607,8.16-2.754,12.539c1.592,0.551,1.721-0.799,2.181-1.594c0.224,0.303,0.405,0.551,0.606,0.824
	c0.537-0.465,0.898-0.781,1.361-1.184c0.035,0.486,0.062,0.846,0.093,1.262c0.406-0.107,0.77-0.201,0.989-0.258
	c0.229,0.574,0.512,1.096,0.641,1.654c0.367,1.57-0.8,2.635-1.433,3.838c-0.614,1.17-0.538,2.148,0.413,2.928
	c1.479,1.213,2.084,2.801,2.293,4.77c2.469-1.141,4.178-0.072,5.657,1.715c-0.241,2.068-1.214,3.688-2.662,5.031
	c-1.096,1.014-1.366,2.152-1.03,3.619c0.738,3.229,0.986,6.404-0.328,9.662c-0.668,1.652-0.607,3.639-0.691,5.481
	c-0.11,2.428,0.082,2.562,2.812,3.084c0,5.051,0,10.152,0,15.412c1.715,0.203,2.051,1.197,1.989,2.629
	c-0.106,2.428-0.029,4.863-0.029,7.525c1.905,0.09,3.628,0.172,5.438,0.26c0.197,0.666,0.38,1.281,0.613,2.068
	c3.396,0,6.742,0,10.297,0c0.102,1.404,0.189,2.623,0.289,4.01c0.688,0.074,1.33,0.199,1.974,0.201
	c3.202,0.02,6.403,0.033,9.604-0.002c1.136-0.01,2.041,0.123,2.851,1.15c1.085,1.379,2.732,1.908,4.479,2.008
	c5.545,0.33,11.09,0.656,16.635,0.982c0.666,0.039,1.333,0.059,2.203,0.098c0.136,1.504,0.268,2.961,0.412,4.551
	c5.748,0,11.354,0,17.23,0c0-7.678,0-15.305,0-23.275c4.312,0,8.381,0,12.689,0c0-5.021,0-9.703,0-14.506
	c1.023-0.154,1.82-0.275,2.85-0.432c0-3.205,0-6.375,0-9.735c1.686-0.115,3.15-0.217,4.889-0.334c0-2.939,0-5.764,0-8.793
	c1.57-0.092,2.873-0.166,4.535-0.262c0-2.621,0-5.174,0-7.99c5.041,0,9.721,0,14.68,0c0-14.285,0-28.312,0-42.512
	c4.449,0,8.615,0,12.955,0c0.146,1.129,0.291,2.26,0.467,3.629c4.156,0,8.25,0,12.598,0c0,15.709,0,31.164,0,46.844
	c1.553,0.092,2.865,0.168,4.521,0.262c0,3.57,0,7.135,0,10.848c5.355,0,10.365,0,15.586,0c0.098-1.238,0.193-2.455,0.311-3.93
	c4.678,0,9.271,0,14.088,0c0.107-1.727,0.199-3.201,0.301-4.803c0.963-0.127,1.852-0.244,2.951-0.391c0-3.844,0-7.691,0-11.719
	c2.004-0.078,1.809-1.428,1.807-2.693c-0.004-13.139-0.002-26.283-0.002-39.422c0-3.355,0-6.711,0-10.111
	c0.887-0.226,1.592-0.404,2.357-0.601c0.057-1.007,0.107-1.92,0.156-2.801c1.867-0.547,9.117-0.668,12.662-0.179
	c0,1.754-0.486,3.77,0.145,5.334c0.566,1.402,1.088,3.303,3.072,4.023c0,15.188,0,30.424,0,45.746
	c0.713,0.244,1.316,0.453,1.947,0.672c0.064,0.234,0.182,0.473,0.184,0.709c0.02,3.117,0.01,6.234,0.039,9.352
	c0.008,0.787-0.193,1.592,0.957,2.041c0.428,0.17,0.604,1.416,0.607,2.168c0.041,8.427,0.025,16.853,0.025,25.274
	c0,0.922,0,1.846,0,3.119c3.336,0.188,6.555,0.117,10.111,0.029c0-1.225,0-2.295,0-3.361c0-32.349,0.018-64.698-0.037-97.047
	c-0.004-1.908,0.363-3.473,1.838-4.682c2.771-2.276,3.859-5.178,3.238-8.693c-0.199-1.128-0.408-2.302-0.891-3.322
	c-0.885-1.875-1.975-3.649-3.123-5.726c1.461-0.111,2.611-0.196,3.908-0.29c0.197-0.659,0.404-1.354,0.631-2.103
	c0.189-0.079,0.412-0.254,0.637-0.258c3.959-0.029,7.918-0.036,11.877-0.046c0.254-0.003,0.588-0.068,0.744,0.062
	c1.668,1.412,3.766,1.014,5.811,1.275c0,2.439,0,4.767,0,7.288c-1.051,0.13-2.088,0.261-3.258,0.411c0,3.665,0,7.258,0,11.004
	c0.535,0.183,1.135,0.385,1.979,0.672c0,7.561,0,15.194,0,22.958c1.225,0,2.207,0,3.541,0c2.1-8.272,4.221-16.633,6.379-25.126
	c0.869,0,1.654,0,2.697,0c0,2.553,0.082,5.067-0.027,7.571c-0.076,1.771,0.297,3.287,1.385,4.705
	c0.947,1.229,1.721,2.593,2.57,3.896c0.172-0.052,0.346-0.107,0.518-0.163c0-17.196,0-34.396,0-51.703
	c0.986-0.14,1.711-0.245,2.643-0.378c0.1-1.559,0.199-3.114,0.309-4.812c2.008,0,3.9,0,6.076,0c0,1.927,0,3.821,0,5.977
	c4.166,0.411,8.104,0,12.359,0.287c0.039,0.985,0.111,1.95,0.113,2.915c0.006,17.271,0.004,34.539,0.004,51.811
	c0,12.045,0.006,24.092-0.008,36.139c-0.002,1.615,0.029,3.107,1.229,4.48c0.561,0.639,0.604,1.869,0.607,2.834
	c0.035,13.479,0.021,26.958,0.021,40.438c0,0.906,0,1.814,0,2.891c2.049,0,3.857,0,5.928,0c0-3.059,0-6.137,0-9.242
	c0.922-0.301,1.617-0.529,2.5-0.816c0-21.265,0-42.554,0-63.976c0.879-0.133,1.586-0.244,2.494-0.385c0-5.053,0-9.993,0-15.004
	c0.818-0.203,1.438-0.359,2.184-0.545c0-3.156,0-6.257,0-9.466c0.801-0.241,1.488-0.447,2.295-0.688
	c0.068-1.467,0.137-2.957,0.213-4.571c0.912-0.114,1.723-0.215,2.869-0.358c0-7.17,0-14.353,0-21.588
	c1.15-0.104,1.969-0.179,3.154-0.287c0.045-9.665-0.01-19.293,0.033-29.423c0.773,0.567,1.316,0.759,1.396,1.073
	c0.164,0.632,0.1,1.333,0.1,2.005c0.002,7.75,0.002,15.501,0.002,23.251c0,0.923,0,1.849,0,2.915
	c0.795,0.18,1.502,0.342,2.457,0.561c0,7.052,0,14.18,0,21.445c1.004,0.153,1.793,0.273,2.715,0.417
	c0.088,1.559,0.174,3.049,0.268,4.666c0.965,0.111,1.861,0.212,2.988,0.336c0.078,0.574,0.227,1.203,0.236,1.835
	c0.033,2.021-0.012,4.044,0.023,6.065c0.018,1.017-0.367,2.207,1.225,2.614c0.285,0.071,0.424,1.164,0.432,1.786
	c0.039,3.793,0.021,7.584,0.021,11.373c0,0.818,0,1.637,0,2.453c0.188,0.078,0.377,0.152,0.566,0.23
	c1.988-2.409,4.047-4.767,5.539-7.561c0.211-0.398,0.084-0.984,0.084-1.487c0.006-7.652,0.01-15.308,0.012-22.964
	c0.002-2.847,0-5.69,0-8.615c1.168-0.127,1.984-0.215,3.162-0.345c0.156-2.866,0.047-5.781,0.066-8.689
	c0.02-2.948,0.006-5.895,0.006-8.846c0-2.947,0-5.895,0-8.842c0-2.951,0-5.898,0-8.846c0-2.944,0-5.889,0-9.185
	c3.35,0,6.578,0,10.107,0c0-1.252,0-2.152,0-3.052c0-5.983,0.035-11.964-0.023-17.944c-0.014-1.353,0.326-2.408,1.268-3.394
	c1.51-1.585,2.824-3.355,4.367-4.902c1.117-1.119,1.535-2.325,1.396-3.848c-0.084-0.911-0.016-1.835-0.016-2.933
	c0.756-0.09,1.387-0.225,2.018-0.227c1.033,0,1.914-0.139,2.775-0.892c0.625-0.546,1.635-0.649,2.66-1.016
	c0.068-0.839,0.152-1.819,0.248-2.969c0.738,0,1.418,0,2.219,0c0.072,1.039,0.137,1.937,0.211,3.026
	c1.486,0.093,2.885,0.179,4.389,0.272c0.123,0.779,0.236,1.504,0.379,2.409c0.818,0.134,1.695,0.277,2.6,0.427
	c0.088,0.251,0.271,0.499,0.234,0.709c-0.514,3.021,0.709,5.444,2.746,7.472c2.586,2.574,3.266,5.595,3.08,9.159
	c-0.246,4.79-0.061,9.602-0.061,14.402c0,0.916,0,1.835,0,3.058c3.326,0.333,6.506,0.013,9.959,0.225
	c0.318,2.429,0.105,4.849,0.141,7.248c0.039,2.524,0.01,5.054,0.01,7.581c0,2.442,0,4.884,0,7.326c0,2.53,0,5.057,0,7.584
	c0,2.442,0,4.884,0,7.33c0,2.527,0,5.054,0,7.581c0,2.433,0,4.865,0,7.483c1.748,0,3.297,0,5.148,0c0-11.379,0-22.788,0-34.34
	c0.91,0,1.529,0,2.387,0c0,6.062,0,12.012,0,18.142c0.928,0.088,1.635,0.153,2.525,0.235c0.139-1.122,0.256-2.09,0.389-3.166
	c0.908-0.14,1.799-0.28,2.928-0.46c0-6.469,0-12.925,0-19.664c3.227,0,6.211,0,9.451,0c0-11.791,0-23.293,0-34.994
	c1.879,0,3.504,0,5.41,0c0,11.544,0,23.044,0,34.812c3.254,0,6.244,0,9.59,0c0.223,6.589-0.035,12.941,0.148,19.325
	c1.033,0.173,1.84,0.307,2.736,0.457c0.156,0.671,0.309,1.308,0.479,2.025c0.604,0.029,1.174,0.059,2.035,0.101
	c0-5.514,0-10.946,0-16.544c0.979-0.072,1.682-0.121,2.713-0.195c0,35.768,0,71.347,0,107.087c2.537,0,4.764,0,7.229,0
	c0-9.736,0-19.391,0-29.33c2.172-0.104,4.135-0.199,6.463-0.309c0.035-7.559,0.012-15.021,0.016-22.485
	c0.004-7.581,0-15.162,0-22.746c0-7.496,0-14.995,0-22.491s0-14.989,0-22.619c0.604-0.287,1.174-0.557,1.91-0.91
	c0.062-1.151,0.127-2.393,0.205-3.824c0.779-0.173,1.566-0.346,2.484-0.551c0.062-0.342,0.227-0.747,0.184-1.128
	c-0.176-1.63,0.521-2.758,1.568-4.01c1.768-2.119,3.211-4.516,4.658-6.878c0.355-0.576,0.268-1.464,0.271-2.209
	c0.023-4.633,0.01-9.266,0.01-13.899c0-0.822,0-1.644,0-2.465c0.189-0.082,0.381-0.163,0.57-0.245
	c0.307,0.344,0.799,0.649,0.881,1.04c0.146,0.729,0.062,1.506,0.062,2.264c0.002,4.55,0.029,9.099-0.018,13.647
	c-0.012,1.234,0.227,2.308,0.965,3.306c1.605,2.152,3.287,4.261,4.693,6.537c0.658,1.063,0.75,2.478,1.174,4.007
	c0.469,0.124,1.252,0.333,2.164,0.571c0.078,1.317,0.154,2.631,0.238,4.066c0.984,0.121,1.875,0.225,3.016,0.362
	c0,30.427,0,60.789,0,91.387c1.699,0.113,3.166,0.211,4.904,0.33c0,8.623,0,17.176,0,25.881c1.5,0,2.719,0,4.297,0
	c0.275-2.627,0.096-5.291,0.127-7.941c0.029-2.613,0.008-5.225,0.008-7.836c0-2.684,0-5.369,0-7.998
	c2.873-0.883,3.129-0.805,4.535,1.262c0.662,0.973,1.326,1.943,1.996,2.922c6.256,0,12.465,0,18.963,0c0-15.406,0-30.688,0-46.101
	c1.256-0.114,2.24-0.202,3.543-0.319c0.037-0.832,0.105-1.715,0.109-2.596c0.01-7.16-0.033-14.324,0.041-21.484
	c0.014-1.206,0.385-2.465,0.836-3.603c0.615-1.559,1.443-3.039,2.221-4.532c0.971-1.875,1.998-3.724,1.629-5.97
	c0.613-0.3,1.125-0.551,1.807-0.884c0-2.468,0-4.976,0-7.652c0.805-0.036,1.432-0.062,2.051-0.091
	c0.137,0.359,0.293,0.587,0.301,0.818c0.031,1.683,0,3.368,0.055,5.051c0.043,1.252-0.438,2.634,1.102,3.531
	c0.385,0.222,0.307,1.239,0.457,1.985c0.973,0.118,1.947,0.235,2.896,0.349c0.225,1.412,0.162,2.84,0.713,3.971
	c0.525,1.076,1.637,1.901,2.586,2.729c0.9,0.786,0.832,1.764,0.832,2.771c-0.004,7.835-0.01,15.67,0.01,23.505
	c0.002,0.923-0.402,2.083,1.096,2.429c0.207,0.049,0.346,0.714,0.385,1.108c0.061,0.666,0.021,1.344,0.021,2.019
	c0.004,15.416,0.004,30.832,0.004,46.251c0,0.994,0,1.992,0,3.156c1.178,0,2.145,0,3.424,0c0.035-0.848,0.111-1.738,0.111-2.629
	c0.006-11.373,0.049-22.746-0.039-34.115c-0.014-1.852,0.492-3.169,1.852-4.398c2.057-1.865,4.004-3.86,5.9-5.892
	c0.945-1.011,1.971-1.369,3.332-1.343c3.861,0.075,7.723,0.026,11.895,0.026c0.287-4.776,0.105-9.374,0.139-13.961
	c0.031-4.548,0.006-9.097,0.006-13.649c0-4.633,0-9.266,0-13.899c0-4.549,0-9.097,0-13.646c0-4.633,0-9.267,0-13.9
	c0-4.55,0-9.099,0-13.648c0-4.617,0-9.234,0-13.919c0.867-0.178,1.5-0.308,2.324-0.478c0-6.041,0-12.084,0-18.475
	c2.902,0,5.619,0,8.582,0c0-4.685,0-9.027,0-13.399c0.842-0.248,1.455-0.427,2.236-0.656c0-0.807,0.02-1.555-0.002-2.303
	c-0.072-2.157,0.57-3.954,2.389-5.277c0.414-0.303,0.779-0.894,0.865-1.402c0.498-3.055,1.975-5.335,5.08-6.573
	c0-12.351,0-24.71,0-37.206c0.711-0.065,1.248-0.114,2.004-0.184c0,12.514,0,24.867,0,37.309c3.262,1.465,4.703,4.059,5.051,7.385
	c0.053,0.473,0.219,1.042,0.535,1.361c1.455,1.462,1.588,3.256,1.533,5.153c-0.023,0.859-0.307,1.868,1.072,2.206
	c0.293,0.071,0.477,1.134,0.488,1.746c0.053,2.514,0.023,5.031,0.023,7.724c1.229,0.142,2.279,0.262,3.648,0.42
	c0,2.488,0,4.961,0,7.579c2.047,0,3.766,0,5.738,0c0-2.086,0-4.074,0-6.231c1.023,0,1.801,0,2.857,0c0,6.724,0,13.342,0,20.058
	c1.039,0.199,1.832,0.349,2.855,0.542c0,32.278,0,64.594,0,97.192c5.402,0,10.584,0,16.123,0c0.066,9.257,0.02,18.23,0.029,27.207
	c0.008,8.918,0,17.838,0,26.967c0.836,0.068,1.525,0.125,2.426,0.197c0-4.221,0-8.24,0-12.365c0.729-0.258,1.32-0.467,2.061-0.73
	c0-1.686,0-3.426,0-5.359c-0.482-0.164-1.078-0.365-1.803-0.609c0-0.594,0-1.223,0-1.973c1.121-0.111,2.176-0.219,3.42-0.344
	c0-31.656,0-63.222,0-94.846c0.895-0.222,1.611-0.398,2.326-0.577c0.055-0.062,0.117-0.117,0.166-0.179
	c0.049-0.068,0.131-0.144,0.131-0.212c0.006-8.331,0.006-16.657,0.006-25.023c0.775-0.269,1.301-0.452,2.018-0.701
	c0.066-1.262,0.135-2.583,0.213-4.055c1.516-0.173,1.648-1.203,1.617-2.494c-0.076-3.111-0.023-6.223-0.023-9.413
	c0.75-0.199,1.377-0.364,2.227-0.589c0-1.93,0-3.919,0-5.995c0.744-0.308,1.324-0.547,1.844-0.763
	c0.557-2.383,1.01-4.743,1.686-7.036c0.322-1.096,0.83-2.362,1.672-3.022c1.217-0.957,1.262-2.032,1.258-3.314
	c-0.02-7.583-0.01-15.164-0.01-22.746c0-0.912,0-1.825,0-2.856c0.695,0,1.162,0,1.934,0c0,0.936,0,1.839,0,2.742
	c0,7.833,0.014,15.668-0.01,23.503c-0.002,1.207,0.15,2.253,0.959,3.271c0.604,0.756,0.92,1.793,1.188,2.753
	c0.703,2.543,1.477,5.083,1.9,7.677c0.293,1.801,0.055,3.691,0.055,5.667c0.682,0.225,1.279,0.424,2.088,0.692
	c0,3.716,0,7.475,0,11.318c0.809,0.228,1.428,0.401,2.133,0.6c0.078,1.335,0.152,2.666,0.234,4.112
	c0.762,0.163,1.467,0.312,2.41,0.512c0,0.952,0,1.865,0,2.776c0,6.824-0.01,13.649,0.012,20.47c0.004,1.024-0.377,2.256,1.158,2.707
	c0.248,0.075,0.439,0.665,0.479,1.037c0.076,0.75,0.033,1.513,0.033,2.27c0,29.57,0,59.14,0,88.707c0,0.987,0,1.973,0,3.153
	c1.695,0,3.094,0,4.646,0c0.078,0.811,0.141,1.438,0.219,2.227c-0.934,0.15-1.723,0.277-2.623,0.424c0,1.871,0,3.682,0,5.631
	c1.094,0.113,2.072,0.213,3.246,0.336c0,3.404,0,6.752,0,10.213c0.873,0.197,1.574,0.357,2.516,0.572c0,8.172,0,16.395,0,24.834
	c1.596,0.12,2.971,0.222,4.553,0.343c0,14.736,0,29.363,0,44.195c1.418,0,2.627,0,4.039,0c0-14.828,0-29.699,0-44.698
	c0.73-0.258,1.328-0.471,2.02-0.715c0.094-0.604,0.195-1.258,0.322-2.066c0.521-0.186,1.117-0.402,1.848-0.662
	c0-7.982,0-15.975,0-24.043c0.719-0.242,1.322-0.441,1.943-0.646c0.059-0.258,0.164-0.498,0.168-0.74
	c0.012-3.959,0.006-7.92,0.029-11.877c0.006-0.789-0.266-1.688,0.867-2.121c0.283-0.107,0.416-0.85,0.449-1.312
	c0.064-0.998,0.02-2.01,0.02-3.036c0.648-0.265,1.17-0.473,1.744-0.704c0.078-1.451,0.154-2.854,0.234-4.34
	c0.939-0.153,1.738-0.287,2.625-0.434c0.076-1.327,0.145-2.566,0.223-3.979c1.047,0,2.002,0,3.09,0
	c0.105,0.848,0.203,1.66,0.346,2.848c1.217,0,2.443-0.004,3.668,0c2.107,0.01,4.213-0.043,6.316,0.055
	c4.324,0.192,6.975,2.928,7.102,7.271c0.049,1.747,0.006,3.498,0.006,5.314c1.246,0.121,2.217,0.215,3.443,0.332
	c0,4.719,0,9.316,0,13.955c1.17,0.131,2.074,0.234,3.33,0.379c0.109,2.732,0.031,5.48,0.049,8.227
	c0.012,2.693,0.002,5.389,0.002,8.086c0,2.764,0,5.533,0,8.451c4.232,0,8.217,0,12.361,0c0.043-0.926,0.107-1.744,0.107-2.566
	c0.01-5.645-0.004-11.287,0.014-16.932c0.002-1.309-0.316-2.699,1.088-3.652c1.527-1.029,3.145-1.758,4.971-1.291
	c1.361,0.35,2.807,0.805,3.926,1.613c2.578,1.873,4.99,3.975,7.455,6.006c1.459,1.197,2.254,2.684,1.947,4.646
	c-0.062,0.398,0.068,0.828,0.121,1.352c0.633,0.176,1.248,0.344,1.996,0.551c0.045,0.654,0.127,1.311,0.129,1.965
	c0.018,2.779-0.006,5.561,0.01,8.342c0.078,14.733,0.16,29.472,0.252,44.206c0.004,0.74,0.084,1.477,0.137,2.305
	c1.229,0,2.295,0,3.58,0c0-19.539,0-38.969,0-58.612c1.406-0.152,2.619-0.283,4.066-0.443c0-3.887,0-7.736,0-11.756
	c0.961-0.07,1.701-0.164,2.438-0.168c5.561-0.012,11.119-0.012,16.682,0c0.963,0.004,1.947-0.207,2.514,1.076
	c0.17,0.379,1.363,0.414,2.09,0.418c6.656,0.029,13.311,0.016,19.965,0.016c0.904,0,1.811,0,2.807,0
	c0.059,0.945,0.105,1.607,0.141,2.268c0.02,0.338-0.113,0.84,0.059,0.984c2.346,1.965,0.738,4.73,1.48,7.062
	c0.49,0.211,1.012,0.436,1.732,0.746c0,12.172,0,24.353,0,36.661c1.461,0,2.695,0,4.113,0c0.066-0.641,0.188-1.283,0.189-1.926
	c0.023-2.779-0.016-5.561,0.023-8.338c0.016-1.121-0.336-2.314,0.764-3.273c0.326-0.283,0.215-1.111,0.225-1.691
	c0.029-1.504,0.01-3.008,0.01-4.576c0.828-0.176,1.463-0.309,2.291-0.484c0.676-2.815,2.479-4.761,5.543-4.784
	c3.068-0.023,4.961,1.826,5.658,4.81c0.84,0.135,1.564,0.248,2.51,0.398c0,1.242-0.061,2.408,0.02,3.566
	c0.086,1.232-0.547,2.658,1.105,3.531c0.355,0.189,0.219,1.418,0.219,2.168c0.014,7.414,0.01,14.826,0.01,22.24
	c0,0.92,0,1.842,0,3.137c4.418,0.02,8.674,0.023,13.104-0.014c0.156-0.664,0.301-1.277,0.486-2.062
	c0.629-0.135,1.344-0.281,2.234-0.467c0.191-0.473,0.434-1.066,0.703-1.729c0.688,0,1.35,0,1.725,0
	c0.865,0.896,1.592,1.656,2.318,2.412c0.15-0.07,0.297-0.139,0.447-0.211c0,2.578,0,5.158,0,7.939c1.846,0,3.479,0,5.43,0
	c0-2.654,0-5.387,0-8.26c0.928-0.088,1.584-0.084,2.207-0.227c0.674-0.158,1.305-0.572,1.982-0.656
	c1.291-0.164,2.627-0.365,3.893-0.186c0.961,0.133,1.846,0.828,3.078,1.424c0.062,0.748,0.16,1.893,0.268,3.209
	c0.58,0.033,1.105,0.059,1.887,0.102c0-1.338,0-2.502,0-3.666c0-3.877-0.012-7.75,0.014-11.627c0.004-0.65,0.01-1.775,0.293-1.877
	c1.986-0.691,1.334-2.295,1.354-3.59c0.059-4.207,0.023-8.412,0.023-12.721c0.74-0.186,1.359-0.342,2.119-0.537
	c0.123-1.076,0.107-2.328,1.74-2.445c0.252-0.02,0.432-0.992,0.68-1.611c2.32,0,4.662,0,7.195,0
	c-0.043,1.635,1.037,2.035,2.479,1.941c0.137,0.779,0.248,1.418,0.365,2.105c0.584,0.166,1.131,0.32,1.855,0.525
	c0,5.209,0,10.41,0,15.699c0.799,0.176,1.43,0.312,2.289,0.498c0.045,0.662,0.137,1.391,0.139,2.117
	c0.014,4.213-0.02,8.424,0.027,12.635c0.01,1.072-0.516,2.428,1.199,2.898c0.209,0.055,0.264,0.906,0.283,1.395
	c0.043,1.002,0.014,2.01,0.014,3.242c1.701,0.098,3.258,0.186,4.973,0.283c0,13.688,0,27.297,0,40.91
	C1670.803,447.011,729.432,447.153,726.136,446.61z"/>
<text transform="matrix(1 0 0 1 9.7695 46.3926)" font-family="'AgentOrange'" font-size="47.6782">Game over </text>
<g>
	<defs>
		<rect id="SVGID_1_" width="500" height="600"/>
	</defs>
	<clipPath id="SVGID_2_">
		<use xlink:href="#SVGID_1_"  overflow="visible"/>
	</clipPath>
	<rect x="-36" y="364" clip-path="url(#SVGID_2_)" fill-rule="evenodd" clip-rule="evenodd" width="585" height="284"/>
	
		<rect x="-5.896" y="-2.895" clip-path="url(#SVGID_2_)" fill-rule="evenodd" clip-rule="evenodd" fill="#ADE0F9" width="520.896" height="342.896"/>
	<polyline clip-path="url(#SVGID_2_)" fill="#4C4D51" points="0,662.667 167.595,385.256 334.086,380.757 500.578,665.742 	"/>
	<polyline clip-path="url(#SVGID_2_)" fill="#E7AC22" points="227.826,661.6 245.046,625.523 262.151,624.938 279.258,662 	"/>
	<polyline clip-path="url(#SVGID_2_)" fill="#E7AC22" points="240.492,601.869 249.008,576.014 257.467,575.595 265.927,602.156 	
		"/>
	<polyline clip-path="url(#SVGID_2_)" fill="#E7AC22" points="244.559,557.029 250.576,531.173 256.554,530.754 262.531,557.316 	
		"/>
	<polyline clip-path="url(#SVGID_2_)" fill="#E7AC22" points="246.019,511.842 251.256,491.178 256.457,490.843 261.659,512.071 	
		"/>
	<polyline clip-path="url(#SVGID_2_)" fill="#E7AC22" points="249.02,476.544 252.471,459.124 255.898,458.842 259.327,476.737 	"/>
	<polyline clip-path="url(#SVGID_2_)" fill="#E7AC22" points="250.608,448.261 252.55,435.384 254.478,435.175 256.406,448.403 	"/>
	<polyline clip-path="url(#SVGID_2_)" fill="#E7AC22" points="251.354,425.146 252.689,416.162 254.015,416.017 255.341,425.245 	
		"/>
	<polyline clip-path="url(#SVGID_2_)" fill="#E7AC22" points="252.102,410.914 252.853,403.635 253.598,403.517 254.344,410.995 	
		"/>
	<polyline clip-path="url(#SVGID_2_)" fill="#E7AC22" points="252.187,399.436 252.797,394.104 253.402,394.017 254.009,399.495 	
		"/>
	<polyline clip-path="url(#SVGID_2_)" fill="#E7AC22" points="252.528,390.459 252.91,386.826 253.288,386.767 253.667,390.5 	"/>
	<path clip-path="url(#SVGID_2_)" fill-rule="evenodd" clip-rule="evenodd" d="M-268.827,386.115c0-15.453,0-30.758,0-46.375
		c2.122,0,4.13,0.084,6.125-0.027c1.407-0.08,2.868-0.227,4.185-0.688c5.815-2.031,11.843-2.439,17.917-2.566
		c0.423-0.01,0.848-0.045,1.264-0.002c2.585,0.27,4.78-0.471,6.554-2.416c0.911-1.002,2.078-1.289,3.426-1.223
		c1.757,0.084,3.521,0.02,5.309,0.02c0.223-0.799,0.398-1.432,0.621-2.24c1.215-0.068,2.449-0.137,3.971-0.223
		c0-2.977,0-5.963,0-8.973c0.986-0.238,1.708-0.414,2.613-0.635c0.062-0.588,0.188-1.232,0.195-1.875
		c0.025-2.021,0.07-4.047,0-6.064c-0.243-6.93,1.172-13.412,4.859-19.369c0.521-0.84,0.482-2.09,0.521-3.156
		c0.086-2.242-0.673-4.512,0.332-6.738c0.143-0.316-0.107-1.031-0.411-1.289c-1.3-1.105-1.018-2.52-0.426-3.619
		c0.587-1.092,0.553-2.027,0.399-3.127c-0.232-1.662-0.436-3.342-0.512-5.018c-0.088-1.93-0.162-3.871,1.115-5.572
		c0.32-0.43,0.378-1.1,0.439-1.672c0.227-2.094,0.336-4.201,0.621-6.283c0.256-1.863,0.412-3.649-0.932-4.833
		c1.045-1.585,1.971-2.987,3.006-4.552c0.225,0.332,0.793,0.795,0.736,1.164c-0.201,1.34,0.488,2.139,1.389,2.717
		c0,0.257,0.035,0.371-0.008,0.416c-3.186,3.682-2.607,8.162-2.754,12.541c1.592,0.551,1.721-0.799,2.181-1.594
		c0.224,0.303,0.405,0.551,0.606,0.824c0.537-0.467,0.898-0.783,1.361-1.184c0.035,0.486,0.062,0.844,0.093,1.262
		c0.406-0.107,0.77-0.201,0.989-0.258c0.229,0.574,0.512,1.096,0.641,1.654c0.367,1.57-0.8,2.633-1.433,3.836
		c-0.614,1.172-0.538,2.15,0.413,2.93c1.479,1.213,2.084,2.801,2.293,4.77c2.469-1.141,4.178-0.072,5.657,1.715
		c-0.241,2.066-1.214,3.688-2.662,5.031c-1.096,1.014-1.366,2.152-1.03,3.619c0.738,3.229,0.986,6.404-0.328,9.66
		c-0.668,1.654-0.607,3.639-0.691,5.482c-0.11,2.428,0.082,2.562,2.812,3.084c0,5.051,0,10.152,0,15.412
		c1.715,0.203,2.051,1.197,1.989,2.629c-0.106,2.428-0.029,4.863-0.029,7.525c1.905,0.09,3.628,0.172,5.438,0.26
		c0.197,0.666,0.38,1.281,0.613,2.068c3.396,0,6.742,0,10.297,0c0.102,1.404,0.189,2.623,0.289,4.01
		c0.688,0.074,1.33,0.199,1.974,0.201c3.202,0.02,6.403,0.033,9.604-0.002c1.136-0.01,2.041,0.123,2.851,1.15
		c1.085,1.379,2.732,1.908,4.479,2.008c5.545,0.33,11.09,0.656,16.635,0.982c0.666,0.039,1.333,0.059,2.203,0.098
		c0.136,1.504,0.268,2.961,0.412,4.551c5.748,0,11.354,0,17.23,0c0-7.678,0-15.305,0-23.275c4.312,0,8.381,0,12.689,0
		c0-5.021,0-9.703,0-14.506c1.023-0.154,1.82-0.275,2.85-0.432c0-3.205,0-6.375,0-9.736c1.686-0.113,3.15-0.215,4.889-0.332
		c0-2.941,0-5.764,0-8.793c1.57-0.092,2.873-0.166,4.535-0.262c0-2.621,0-5.174,0-7.992c5.041,0,9.721,0,14.68,0
		c0-14.283,0-28.311,0-42.511c4.449,0,8.615,0,12.955,0c0.146,1.128,0.291,2.26,0.467,3.63c4.156,0,8.25,0,12.598,0
		c0,15.709,0,31.164,0,46.844c1.553,0.092,2.865,0.166,4.521,0.262c0,3.57,0,7.133,0,10.848c5.355,0,10.365,0,15.586,0
		c0.098-1.24,0.193-2.455,0.311-3.93c4.678,0,9.271,0,14.088,0c0.107-1.729,0.199-3.201,0.301-4.803
		c0.963-0.127,1.852-0.244,2.951-0.391c0-3.844,0-7.691,0-11.719c2.004-0.078,1.809-1.428,1.807-2.693
		c-0.004-13.141-0.002-26.283-0.002-39.424c0-3.355,0-6.71,0-10.111c0.887-0.225,1.592-0.404,2.357-0.6
		c0.057-1.008,0.107-1.92,0.156-2.801c1.867-0.547,9.117-0.668,12.662-0.18c0,1.755-0.486,3.77,0.145,5.335
		c0.566,1.401,1.088,3.303,3.072,4.023c0,15.188,0,30.425,0,45.745c0.713,0.246,1.316,0.453,1.947,0.672
		c0.064,0.234,0.182,0.473,0.184,0.711c0.02,3.117,0.01,6.234,0.039,9.352c0.008,0.785-0.193,1.592,0.957,2.041
		c0.428,0.17,0.604,1.416,0.607,2.168c0.041,8.426,0.025,16.852,0.025,25.273c0,0.922,0,1.846,0,3.119
		c3.336,0.188,6.555,0.117,10.111,0.029c0-1.225,0-2.295,0-3.361c0-32.348,0.018-64.699-0.037-97.047
		c-0.004-1.908,0.363-3.473,1.838-4.682c2.771-2.276,3.859-5.178,3.238-8.693c-0.199-1.128-0.408-2.302-0.891-3.322
		c-0.885-1.875-1.975-3.648-3.123-5.726c1.461-0.11,2.611-0.196,3.908-0.29c0.197-0.658,0.404-1.354,0.631-2.104
		c0.189-0.078,0.412-0.254,0.637-0.258c3.959-0.029,7.918-0.035,11.877-0.045c0.254-0.004,0.588-0.068,0.744,0.062
		c1.668,1.412,3.766,1.015,5.811,1.274c0,2.439,0,4.768,0,7.288c-1.051,0.13-2.088,0.261-3.258,0.411c0,3.664,0,7.258,0,11.004
		c0.535,0.183,1.135,0.385,1.979,0.672c0,7.561,0,15.193,0,22.957c1.225,0,2.207,0,3.541,0c2.1-8.271,4.221-16.632,6.379-25.125
		c0.869,0,1.654,0,2.697,0c0,2.553,0.082,5.066-0.027,7.57c-0.076,1.771,0.297,3.287,1.385,4.705
		c0.947,1.229,1.721,2.592,2.57,3.896c0.172-0.053,0.346-0.107,0.518-0.163c0-17.196,0-34.396,0-51.702
		c0.986-0.141,1.711-0.245,2.643-0.379c0.1-1.559,0.199-3.113,0.309-4.812c2.008,0,3.9,0,6.076,0c0,1.928,0,3.822,0,5.977
		c4.166,0.411,8.104,0,12.359,0.287c0.039,0.984,0.111,1.949,0.113,2.915c0.006,17.271,0.004,34.539,0.004,51.81
		c0,12.045,0.006,24.094-0.008,36.141c-0.002,1.613,0.029,3.107,1.229,4.48c0.561,0.639,0.604,1.867,0.607,2.834
		c0.035,13.479,0.021,26.957,0.021,40.438c0,0.906,0,1.814,0,2.891c2.049,0,3.857,0,5.928,0c0-3.059,0-6.137,0-9.242
		c0.922-0.301,1.617-0.529,2.5-0.816c0-21.266,0-42.553,0-63.975c0.879-0.135,1.586-0.245,2.494-0.385c0-5.055,0-9.994,0-15.006
		c0.818-0.201,1.438-0.358,2.184-0.545c0-3.156,0-6.256,0-9.465c0.801-0.241,1.488-0.447,2.295-0.688
		c0.068-1.468,0.137-2.957,0.213-4.572c0.912-0.113,1.723-0.215,2.869-0.357c0-7.17,0-14.354,0-21.589
		c1.15-0.104,1.969-0.179,3.154-0.286c0.045-9.665-0.01-19.293,0.033-29.424c0.773,0.567,1.316,0.759,1.396,1.073
		c0.164,0.632,0.1,1.333,0.1,2.005c0.002,7.75,0.002,15.5,0.002,23.25c0,0.924,0,1.85,0,2.916c0.795,0.18,1.502,0.342,2.457,0.561
		c0,7.053,0,14.18,0,21.445c1.004,0.152,1.793,0.273,2.715,0.416c0.088,1.559,0.174,3.049,0.268,4.666
		c0.965,0.111,1.861,0.213,2.988,0.336c0.078,0.574,0.227,1.203,0.236,1.836c0.033,2.021-0.012,4.043,0.023,6.064
		c0.018,1.018-0.367,2.207,1.225,2.615c0.285,0.072,0.424,1.164,0.432,1.787c0.039,3.791,0.021,7.584,0.021,11.373
		c0,0.818,0,1.637,0,2.451c0.188,0.078,0.377,0.153,0.566,0.232c1.988-2.41,4.047-4.768,5.539-7.562
		c0.211-0.396,0.084-0.984,0.084-1.486c0.006-7.652,0.01-15.309,0.012-22.964c0.002-2.847,0-5.69,0-8.614
		c1.168-0.127,1.984-0.215,3.162-0.346c0.156-2.866,0.047-5.781,0.066-8.689c0.02-2.947,0.006-5.895,0.006-8.846
		c0-2.947,0-5.896,0-8.843c0-2.951,0-5.898,0-8.847c0-2.943,0-5.888,0-9.185c3.35,0,6.578,0,10.107,0c0-1.252,0-2.152,0-3.052
		c0-5.983,0.035-11.964-0.023-17.944c-0.014-1.353,0.326-2.408,1.268-3.394c1.51-1.585,2.824-3.355,4.367-4.902
		c1.117-1.119,1.535-2.325,1.396-3.848c-0.084-0.911-0.016-1.835-0.016-2.933c0.756-0.09,1.387-0.225,2.018-0.227
		c1.033,0,1.914-0.139,2.775-0.892c0.625-0.546,1.635-0.649,2.66-1.016c0.068-0.839,0.152-1.819,0.248-2.969
		c0.738,0,1.418,0,2.219,0c0.072,1.039,0.137,1.937,0.211,3.026c1.486,0.093,2.885,0.179,4.389,0.272
		c0.123,0.779,0.236,1.504,0.379,2.409c0.818,0.134,1.695,0.277,2.6,0.427c0.088,0.251,0.271,0.499,0.234,0.709
		c-0.514,3.021,0.709,5.444,2.746,7.472c2.586,2.574,3.266,5.595,3.08,9.159c-0.246,4.79-0.061,9.602-0.061,14.402
		c0,0.916,0,1.835,0,3.058c3.326,0.333,6.506,0.013,9.959,0.225c0.318,2.429,0.105,4.849,0.141,7.248
		c0.039,2.524,0.01,5.055,0.01,7.582c0,2.441,0,4.884,0,7.326c0,2.529,0,5.057,0,7.584c0,2.441,0,4.885,0,7.33
		c0,2.526,0,5.053,0,7.58c0,2.433,0,4.865,0,7.482c1.748,0,3.297,0,5.148,0c0-11.379,0-22.787,0-34.34c0.91,0,1.529,0,2.387,0
		c0,6.062,0,12.012,0,18.143c0.928,0.088,1.635,0.152,2.525,0.234c0.139-1.121,0.256-2.09,0.389-3.166
		c0.908-0.141,1.799-0.28,2.928-0.46c0-6.469,0-12.925,0-19.664c3.227,0,6.211,0,9.451,0c0-11.791,0-23.293,0-34.994
		c1.879,0,3.504,0,5.41,0c0,11.544,0,23.044,0,34.812c3.254,0,6.244,0,9.59,0c0.223,6.59-0.035,12.941,0.148,19.325
		c1.033,0.173,1.84,0.307,2.736,0.456c0.156,0.672,0.309,1.309,0.479,2.025c0.604,0.029,1.174,0.059,2.035,0.102
		c0-5.514,0-10.946,0-16.545c0.979-0.072,1.682-0.121,2.713-0.195c0,35.768,0,71.348,0,107.086c2.537,0,4.764,0,7.229,0
		c0-9.736,0-19.391,0-29.328c2.172-0.104,4.135-0.199,6.463-0.311c0.035-7.557,0.012-15.021,0.016-22.484
		c0.004-7.58,0-15.162,0-22.746c0-7.496,0-14.994,0-22.49s0-14.989,0-22.619c0.604-0.287,1.174-0.557,1.91-0.91
		c0.062-1.151,0.127-2.393,0.205-3.824c0.779-0.173,1.566-0.346,2.484-0.551c0.062-0.342,0.227-0.747,0.184-1.128
		c-0.176-1.63,0.521-2.758,1.568-4.01c1.768-2.119,3.211-4.516,4.658-6.878c0.355-0.576,0.268-1.464,0.271-2.209
		c0.023-4.633,0.01-9.266,0.01-13.899c0-0.822,0-1.644,0-2.465c0.189-0.082,0.381-0.163,0.57-0.245
		c0.307,0.344,0.799,0.649,0.881,1.04c0.146,0.729,0.062,1.506,0.062,2.264c0.002,4.55,0.029,9.099-0.018,13.647
		c-0.012,1.234,0.227,2.308,0.965,3.306c1.605,2.152,3.287,4.261,4.693,6.537c0.658,1.063,0.75,2.478,1.174,4.007
		c0.469,0.124,1.252,0.333,2.164,0.571c0.078,1.317,0.154,2.631,0.238,4.065c0.984,0.121,1.875,0.225,3.016,0.362
		c0,30.427,0,60.79,0,91.388c1.699,0.113,3.166,0.211,4.904,0.328c0,8.625,0,17.178,0,25.883c1.5,0,2.719,0,4.297,0
		c0.275-2.629,0.096-5.291,0.127-7.943c0.029-2.611,0.008-5.223,0.008-7.834c0-2.684,0-5.371,0-7.998
		c2.873-0.885,3.129-0.807,4.535,1.262c0.662,0.971,1.326,1.943,1.996,2.922c6.256,0,12.465,0,18.963,0c0-15.407,0-30.689,0-46.102
		c1.256-0.115,2.24-0.203,3.543-0.32c0.037-0.831,0.105-1.715,0.109-2.596c0.01-7.16-0.033-14.323,0.041-21.483
		c0.014-1.206,0.385-2.465,0.836-3.603c0.615-1.559,1.443-3.039,2.221-4.532c0.971-1.875,1.998-3.724,1.629-5.97
		c0.613-0.301,1.125-0.551,1.807-0.885c0-2.468,0-4.975,0-7.652c0.805-0.035,1.432-0.062,2.051-0.091
		c0.137,0.358,0.293,0.587,0.301,0.818c0.031,1.683,0,3.368,0.055,5.051c0.043,1.252-0.438,2.634,1.102,3.531
		c0.385,0.222,0.307,1.239,0.457,1.985c0.973,0.117,1.947,0.234,2.896,0.35c0.225,1.411,0.162,2.84,0.713,3.971
		c0.525,1.076,1.637,1.9,2.586,2.729c0.9,0.787,0.832,1.765,0.832,2.771c-0.004,7.836-0.01,15.671,0.01,23.506
		c0.002,0.923-0.402,2.084,1.096,2.43c0.207,0.049,0.346,0.713,0.385,1.107c0.061,0.666,0.021,1.344,0.021,2.02
		c0.004,15.416,0.004,30.832,0.004,46.25c0,0.994,0,1.992,0,3.156c1.178,0,2.145,0,3.424,0c0.035-0.848,0.111-1.736,0.111-2.627
		c0.006-11.373,0.049-22.746-0.039-34.115c-0.014-1.853,0.492-3.17,1.852-4.398c2.057-1.865,4.004-3.861,5.9-5.893
		c0.945-1.011,1.971-1.369,3.332-1.344c3.861,0.076,7.723,0.026,11.895,0.026c0.287-4.776,0.105-9.374,0.139-13.962
		c0.031-4.548,0.006-9.097,0.006-13.648c0-4.633,0-9.266,0-13.899c0-4.549,0-9.097,0-13.646c0-4.633,0-9.267,0-13.9
		c0-4.55,0-9.099,0-13.648c0-4.617,0-9.234,0-13.919c0.867-0.178,1.5-0.308,2.324-0.478c0-6.041,0-12.084,0-18.475
		c2.902,0,5.619,0,8.582,0c0-4.685,0-9.027,0-13.399c0.842-0.248,1.455-0.427,2.236-0.656c0-0.807,0.02-1.555-0.002-2.303
		c-0.072-2.157,0.57-3.954,2.389-5.277c0.414-0.303,0.779-0.894,0.865-1.402c0.498-3.055,1.975-5.335,5.08-6.573
		c0-12.351,0-24.71,0-37.206c0.711-0.065,1.248-0.114,2.004-0.184c0,12.514,0,24.867,0,37.309c3.262,1.465,4.703,4.059,5.051,7.385
		c0.053,0.473,0.219,1.042,0.535,1.361c1.455,1.462,1.588,3.256,1.533,5.153c-0.023,0.859-0.307,1.868,1.072,2.206
		c0.293,0.071,0.477,1.134,0.488,1.746c0.053,2.514,0.023,5.031,0.023,7.724c1.229,0.142,2.279,0.262,3.648,0.42
		c0,2.488,0,4.961,0,7.579c2.047,0,3.766,0,5.738,0c0-2.086,0-4.074,0-6.231c1.023,0,1.801,0,2.857,0c0,6.724,0,13.342,0,20.058
		c1.039,0.199,1.832,0.349,2.855,0.542c0,32.278,0,64.593,0,97.193c5.402,0,10.584,0,16.123,0c0.066,9.256,0.02,18.229,0.029,27.205
		c0.008,8.918,0,17.84,0,26.969c0.836,0.068,1.525,0.125,2.426,0.195c0-4.219,0-8.238,0-12.363c0.729-0.258,1.32-0.467,2.061-0.73
		c0-1.686,0-3.428,0-5.361c-0.482-0.162-1.078-0.365-1.803-0.609c0-0.594,0-1.223,0-1.973c1.121-0.111,2.176-0.219,3.42-0.342
		c0-31.656,0-63.223,0-94.847c0.895-0.222,1.611-0.398,2.326-0.577c0.055-0.062,0.117-0.117,0.166-0.179
		c0.049-0.068,0.131-0.144,0.131-0.212c0.006-8.331,0.006-16.657,0.006-25.023c0.775-0.269,1.301-0.452,2.018-0.701
		c0.066-1.262,0.135-2.583,0.213-4.055c1.516-0.173,1.648-1.203,1.617-2.494c-0.076-3.111-0.023-6.223-0.023-9.413
		c0.75-0.199,1.377-0.364,2.227-0.589c0-1.93,0-3.919,0-5.995c0.744-0.308,1.324-0.547,1.844-0.763
		c0.557-2.383,1.01-4.743,1.686-7.036c0.322-1.096,0.83-2.362,1.672-3.022c1.217-0.957,1.262-2.032,1.258-3.314
		c-0.02-7.583-0.01-15.164-0.01-22.746c0-0.912,0-1.825,0-2.856c0.695,0,1.162,0,1.934,0c0,0.936,0,1.839,0,2.742
		c0,7.833,0.014,15.668-0.01,23.503c-0.002,1.207,0.15,2.253,0.959,3.271c0.604,0.756,0.92,1.793,1.188,2.753
		c0.703,2.543,1.477,5.083,1.9,7.677c0.293,1.801,0.055,3.691,0.055,5.667c0.682,0.225,1.279,0.424,2.088,0.692
		c0,3.716,0,7.475,0,11.318c0.809,0.228,1.428,0.401,2.133,0.6c0.078,1.335,0.152,2.666,0.234,4.112
		c0.762,0.163,1.467,0.312,2.41,0.512c0,0.952,0,1.865,0,2.776c0,6.824-0.01,13.649,0.012,20.47
		c0.004,1.024-0.377,2.256,1.158,2.707c0.248,0.075,0.439,0.665,0.479,1.037c0.076,0.75,0.033,1.513,0.033,2.27
		c0,29.57,0,59.14,0,88.707c0,0.988,0,1.973,0,3.152c1.695,0,3.094,0,4.646,0c0.078,0.812,0.141,1.439,0.219,2.229
		c-0.934,0.148-1.723,0.277-2.623,0.424c0,1.871,0,3.68,0,5.631c1.094,0.113,2.072,0.211,3.246,0.336c0,3.404,0,6.752,0,10.211
		c0.873,0.199,1.574,0.359,2.516,0.574c0,8.172,0,16.395,0,24.832c1.596,0.121,2.971,0.223,4.553,0.344c0,14.736,0,29.363,0,44.195
		c1.418,0,2.627,0,4.039,0c0-14.828,0-29.699,0-44.699c0.73-0.256,1.328-0.469,2.02-0.713c0.094-0.604,0.195-1.26,0.322-2.068
		c0.521-0.186,1.117-0.4,1.848-0.66c0-7.982,0-15.975,0-24.045c0.719-0.24,1.322-0.439,1.943-0.645
		c0.059-0.258,0.164-0.5,0.168-0.74c0.012-3.959,0.006-7.92,0.029-11.879c0.006-0.789-0.266-1.686,0.867-2.119
		c0.283-0.107,0.416-0.852,0.449-1.314c0.064-0.998,0.02-2.008,0.02-3.035c0.648-0.264,1.17-0.473,1.744-0.704
		c0.078-1.451,0.154-2.853,0.234-4.34c0.939-0.153,1.738-0.287,2.625-0.434c0.076-1.327,0.145-2.566,0.223-3.978
		c1.047,0,2.002,0,3.09,0c0.105,0.848,0.203,1.659,0.346,2.846c1.217,0,2.443-0.003,3.668,0c2.107,0.01,4.213-0.042,6.316,0.056
		c4.324,0.192,6.975,2.929,7.102,7.271c0.049,1.748,0.006,3.5,0.006,5.316c1.246,0.119,2.217,0.215,3.443,0.332
		c0,4.717,0,9.314,0,13.955c1.17,0.131,2.074,0.234,3.33,0.377c0.109,2.732,0.031,5.482,0.049,8.227
		c0.012,2.693,0.002,5.391,0.002,8.088c0,2.764,0,5.531,0,8.451c4.232,0,8.217,0,12.361,0c0.043-0.926,0.107-1.746,0.107-2.566
		c0.01-5.645-0.004-11.289,0.014-16.932c0.002-1.309-0.316-2.701,1.088-3.652c1.527-1.031,3.145-1.758,4.971-1.291
		c1.361,0.348,2.807,0.805,3.926,1.613c2.578,1.871,4.99,3.975,7.455,6.006c1.459,1.197,2.254,2.684,1.947,4.646
		c-0.062,0.398,0.068,0.828,0.121,1.35c0.633,0.176,1.248,0.346,1.996,0.551c0.045,0.656,0.127,1.311,0.129,1.967
		c0.018,2.777-0.006,5.559,0.01,8.34c0.078,14.734,0.16,29.473,0.252,44.207c0.004,0.74,0.084,1.477,0.137,2.305
		c1.229,0,2.295,0,3.58,0c0-19.539,0-38.969,0-58.611c1.406-0.152,2.619-0.283,4.066-0.443c0-3.887,0-7.736,0-11.758
		c0.961-0.068,1.701-0.162,2.438-0.166c5.561-0.014,11.119-0.014,16.682,0c0.963,0.004,1.947-0.209,2.514,1.076
		c0.17,0.379,1.363,0.414,2.09,0.418c6.656,0.029,13.311,0.016,19.965,0.016c0.904,0,1.811,0,2.807,0
		c0.059,0.945,0.105,1.607,0.141,2.266c0.02,0.34-0.113,0.842,0.059,0.984c2.346,1.967,0.738,4.732,1.48,7.062
		c0.49,0.213,1.012,0.438,1.732,0.748c0,12.172,0,24.352,0,36.66c1.461,0,2.695,0,4.113,0c0.066-0.641,0.188-1.283,0.189-1.926
		c0.023-2.779-0.016-5.561,0.023-8.338c0.016-1.121-0.336-2.314,0.764-3.273c0.326-0.283,0.215-1.111,0.225-1.691
		c0.029-1.504,0.01-3.008,0.01-4.576c0.828-0.176,1.463-0.309,2.291-0.484c0.676-2.814,2.479-4.762,5.543-4.783
		c3.068-0.023,4.961,1.826,5.658,4.809c0.84,0.135,1.564,0.248,2.51,0.398c0,1.242-0.061,2.408,0.02,3.566
		c0.086,1.232-0.547,2.658,1.105,3.531c0.355,0.189,0.219,1.418,0.219,2.168c0.014,7.414,0.01,14.826,0.01,22.24
		c0,0.92,0,1.842,0,3.137c4.418,0.02,8.674,0.023,13.104-0.014c0.156-0.664,0.301-1.277,0.486-2.062
		c0.629-0.135,1.344-0.281,2.234-0.467c0.191-0.473,0.434-1.066,0.703-1.729c0.688,0,1.35,0,1.725,0
		c0.865,0.896,1.592,1.656,2.318,2.412c0.15-0.07,0.297-0.139,0.447-0.211c0,2.578,0,5.158,0,7.939c1.846,0,3.479,0,5.43,0
		c0-2.654,0-5.387,0-8.26c0.928-0.088,1.584-0.084,2.207-0.227c0.674-0.158,1.305-0.572,1.982-0.656
		c1.291-0.164,2.627-0.365,3.893-0.186c0.961,0.133,1.846,0.828,3.078,1.424c0.062,0.748,0.16,1.893,0.268,3.209
		c0.58,0.033,1.105,0.059,1.887,0.102c0-1.338,0-2.502,0-3.666c0-3.877-0.012-7.75,0.014-11.627c0.004-0.65,0.01-1.775,0.293-1.877
		c1.986-0.691,1.334-2.295,1.354-3.59c0.059-4.207,0.023-8.412,0.023-12.721c0.74-0.186,1.359-0.342,2.119-0.537
		c0.123-1.076,0.107-2.328,1.74-2.445c0.252-0.02,0.432-0.992,0.68-1.611c2.32,0,4.662,0,7.195,0
		c-0.043,1.635,1.037,2.035,2.479,1.941c0.137,0.779,0.248,1.418,0.365,2.105c0.584,0.166,1.131,0.32,1.855,0.525
		c0,5.209,0,10.41,0,15.699c0.799,0.176,1.43,0.312,2.289,0.498c0.045,0.662,0.137,1.391,0.139,2.117
		c0.014,4.213-0.02,8.424,0.027,12.635c0.01,1.072-0.516,2.428,1.199,2.898c0.209,0.055,0.264,0.906,0.283,1.395
		c0.043,1.002,0.014,2.01,0.014,3.242c1.701,0.098,3.258,0.186,4.973,0.283c0,13.688,0,27.297,0,40.91
		C675.84,386.516-265.531,386.658-268.827,386.115z"/>
	<g clip-path="url(#SVGID_2_)">
	</g>
	<g clip-path="url(#SVGID_2_)">
		<polyline fill="#E7AC22" points="249.05,516.175 254.287,495.511 259.488,495.176 264.69,516.404 		"/>
		<polyline fill="#E7AC22" points="252.051,480.877 255.502,463.457 258.93,463.175 262.358,481.07 		"/>
		<path fill="#83A53E" stroke="#000000" stroke-miterlimit="10" d="M407.369,504.684c-1.61-4.85-6.438-7.12-2.217-12.751
			c2.247-2.998,8.642-5.866,8.427-9.4c-0.194-3.188-4.122-3.454-5.757-6.049c-3.422-5.434,1.616-9.982,5.152-14.292
			c4.006-4.882,5.355-8.465-3.511-9.34c-12.438-1.229-16.057,6.127-24.947,9.845c-5.219,2.184-9.411,0.089-14.825-1.363
			c-8.57-2.299-10.14-0.703-17.867,1.031c-3.999,0.897-6.738-0.22-9.917-0.639c-5.247-0.692-8.229-0.572-13.464,0.629
			c-5.381,1.233-10.1,2.704-15.158-0.054c2.018-1.226,4.29-2.223,6.824-2.938c-13.017-1.009-33.039-4.795-42.407,1.663
			c-2.788,1.922-2.71,4.461-6.58,1.945c-3.799-2.469-1.228-14.81,0.812-17.618c-4.337,0.76-10.019,5.898-11.621,5.091
			c-0.002,0.196,0.775,0.256,0.602,0.585c-4.711,2.22-11.543,4.559-17.805,4.162c0.236-1.279-0.331-2.741-0.14-4.013
			c-5.31-0.994-10.959,3.523-14.794,5.646c-2.109,1.167-3.786,2.862-6.146,3.825c-2.431,0.991-5.896,0.919-8.106,2.079
			c-3.304,1.732-4.82,4.888-6.642,7.118c-4.588,5.618-9.039,4.986-17.742,7.206c-7.348,1.873-13.662,4.304-6.402,8.816
			c5.102,3.173,11.864,5.176,18.309,6.788c13.351,3.34,27.479,4.699,41.259,6.97c21.373,3.521,42.271,6.999,64.065,9.2
			c15.178,1.533,29.707,3.983,44.544,6.193c6.456,0.962,13.139,0.88,19.634,1.666c6.251,0.758,11.104,3.755,16.949,4.336
			C400.331,522.259,409.771,511.917,407.369,504.684z"/>
		
			<linearGradient id="head_1_" gradientUnits="userSpaceOnUse" x1="397.2676" y1="233.5322" x2="426.8905" y2="198.229" gradientTransform="matrix(-0.6356 0.772 -0.772 -0.6356 780 297.8345)">
			<stop  offset="0.1983" style="stop-color:#E3A825"/>
			<stop  offset="0.4893" style="stop-color:#97C13D"/>
		</linearGradient>
		<path id="head" fill="url(#head_1_)" stroke="#000000" stroke-miterlimit="10" d="M373.513,456.81c0,0,5.919,4.874,3.664,13.38
			c-2.254,8.507-2.754,10.686-4.979,9.717c-2.224-0.968,4.692,6.887,1.727,10.488c-2.966,3.604-5.189,9.977-11.17,9.372
			c-5.977-0.606-11.033-3.904-10.337-8.944c0.695-5.042,0.695-5.042,0.695-5.042s-1.847-1.951-4.662,5.662
			c-2.813,7.614,0.758,5.372,0.758,5.372l3.299,2.286l-19.055,3.741l-9.401-16.377l-1.999-20.645l34.599-9.509l7.023-3.286
			c0,0,4.48-0.196,2.104,2.163c-2.375,2.362-13.984,9.644-18.948,14.624s-7.643,6.661-8.097,9.311
			c-0.454,2.647-0.635,8.112,0.984,7.719c1.62-0.394,1.62-0.394,1.62-0.394l5.979-6.735l9.186-5.39c0,0,8.234-7.902,9.93-9.961
			C368.126,462.304,373.513,456.81,373.513,456.81z"/>
		
			<linearGradient id="front_arm_1_" gradientUnits="userSpaceOnUse" x1="462.8057" y1="252.3589" x2="498.8481" y2="209.4051" gradientTransform="matrix(-0.6356 0.772 -0.772 -0.6356 780 297.8345)">
			<stop  offset="0" style="stop-color:#E3A825"/>
			<stop  offset="0.2611" style="stop-color:#97C13D"/>
		</linearGradient>
		<path id="front_arm" fill="url(#front_arm_1_)" stroke="#000000" stroke-miterlimit="10" d="M322.446,494.21
			c0,0-6.084-6.305-14.55-2.049s-11.008,7.344-11.008,7.344s-2.16,4.268,1.36,3.28c3.519-0.989,5.597-1.868,5.597-1.868l0.993,4.271
			l-3.476,21.749l-1.695,2.06l-11.03-3.036l-7.737-5.939c0,0,3.596-12.584,0.907-14.797c-2.688-2.213-8.756-6.346-8.756-6.346
			l-0.889,2.723l-3.479-0.705l-1.906,2.315c0,0-5.018,0.618-4.521,2.754c0.496,2.135-0.449,4.381,0.683,5.743
			c1.133,1.364,5.474,3.212,5.035,1.555c-0.439-1.657-2.92,10.118,1.112,13.438c4.031,3.32,33.642,25.972,37.991,21.781
			c4.351-4.191,4.619-3.97,6.805-12.1C316.068,528.251,322.446,494.21,322.446,494.21z"/>
		<path id="yellow_belly" fill="#E7AC22" d="M327.695,468.67c0,0-21.563-7.708-40.203-2.963
			c-18.637,4.743-31.797,7.543-31.797,7.543s-4.094,3.09,1.475,4.803c5.568,1.715,11.376,2.191,9.485,6.376
			c-1.895,4.177-4.712,37.736-8.918,40.015c-4.201,2.282,2.645,4.327,2.645,4.327s11.046-15.3,20.969-20.764
			c9.924-5.461,39.344-6.352,43.854-3.356c4.512,2.997-3.366-0.62-5.391-9.462c-2.021-8.84,1.324-20.438,4.602-23.477
			C327.695,468.67,327.695,468.67,327.695,468.67z"/>
		
			<linearGradient id="back_arm_1_" gradientUnits="userSpaceOnUse" x1="364.7725" y1="242.9561" x2="401.8936" y2="242.9561" gradientTransform="matrix(-0.9996 -0.0297 0.0297 -0.9996 682.6626 691.9707)">
			<stop  offset="0.5449" style="stop-color:#97C13D"/>
			<stop  offset="0.8264" style="stop-color:#E3A825"/>
		</linearGradient>
		<path id="back_arm" fill="url(#back_arm_1_)" stroke="#000000" stroke-miterlimit="10" d="M300.456,483.771
			c0,0,7.262-31.133,6.654-33.151c-0.606-2.02,5.872-6.829,7.503-16.785c1.629-9.956,2.633-21.265,2.633-21.265
			s10.193-6.365,8.919-8.404c-1.272-2.04-2.839-5.422-3.111-7.43c-0.274-2.01,0.159-5.332-1.529-4.714
			c-1.685,0.616-3.451,3.896-1.854,6.279c1.596,2.383,4.87,4.481,2.193,4.736c-2.676,0.252-4.108,3.546-4.361,0.87
			c-0.254-2.678,2.59-8.593-0.419-8.35c-3.007,0.243-8.104,3.426-9.83,5.376c-1.725,1.95-1.119,3.968-0.835,5.646
			c0.284,1.675,4.252,2.794,2.125,7.065c-2.128,4.271-9.815,16.049-10.621,20.693c-0.806,4.646,2.468,6.743-1.688,11.955
			c-4.156,5.214-8.846,17.077-8.885,18.411C287.31,466.037,302.494,482.496,300.456,483.771z"/>
		<path id="front_leg" fill="#93C13E" stroke="#000000" stroke-miterlimit="10" d="M277.817,534.753c0,0-8.188,8.372-20.401,6.951
			c-12.215-1.422-44.878-3.704-44.864-8.441c0.016-4.738,1.423-4.876,1.665-7.267c0.242-2.392,2.617-12.093,7.747-17.8
			s7.158-9.218,7.158-9.218s-24.941,4.073-27.168,3.105c-0.409-0.179-0.962-0.198-1.55-0.152c-0.327,0.026-0.667,0.073-0.998,0.124
			c-0.688,0.107-1.341,0.234-1.783,0.239c-1.035,0.014-0.923-0.647,2.559-3.828c1.58-1.443,4.826-4.342,8.917-8.037
			c13.93-12.581,37.659-34.396,38.816-39.449c1.498-6.538,5.19-9.976,4.358-6.344c-0.831,3.634-2.118,9.913-2.238,11.109
			c-0.121,1.196,1.497,0.803,2.633-2.149c1.135-2.951,6.008-16.211,6.008-16.211s4.675-3.056,3.33,0.151
			c-1.348,3.209-8.505,19.768-4.433,15.348c4.071-4.419,7.611-11.866,7.611-11.866s4.677-3.058,2.392,0.243
			c-2.286,3.299-3.526,10.05-6.114,12.667c-2.586,2.619-18.252,16.924-20.204,18.772c-1.952,1.846-18.252,16.922-18.252,16.922
			s12.578-6.227,21.872-9.866c3.16-1.24,5.942-2.178,7.718-2.473c6.992-1.148,21.507-7.766,25.275-5.526
			c3.77,2.239,5.813,1.331,4.18,6.462c-1.635,5.131-1.831,15.335-4.584,18.679c-2.756,3.346-3.678,6.041-3.678,6.041
			L277.817,534.753z"/>
		<circle fill="#3F3220" cx="362.521" cy="488.777" r="8"/>
		<circle cx="362.714" cy="488.937" r="5.25"/>
		<path fill="none" stroke="#000000" stroke-miterlimit="10" d="M358.362,456.856c-3.245,3.945-7.621,7.584-12.016,10.168
			c-2.228,1.311-4.462,2.428-6.725,3.547c-2.021,1.002-4.302,1.282-6.267,2.193c1.102-1.953,3.142-3.379,4.5-5.218
			c-1.429-1.41-5.755,0.223-7.739,0.389c-2.379,0.202-4.499,0.795-6.762,1.549"/>
		<path opacity="0.4" fill="none" stroke="#FFFFFF" stroke-miterlimit="10" d="M364.678,490.878
			c-0.83,1.448-2.813,2.781-4.154,1.113"/>
		<path opacity="0.8" fill="#BD3026" d="M341.416,476.259c-1.947,1.8,0.842,3.135,2.224,2.793c1.62-0.4,3.132-2.604,4.2-3.908
			c2.029-2.477,6.56-6.379,6.042-9.71c-2.544,0.579-14.67,9.054-12.874,12.108"/>
		<path fill="none" stroke="#000000" stroke-miterlimit="10" d="M296.149,477.14c-1.344-4.091-0.184-10.99-0.046-15.258
			c0.147-4.619,0.991-7.887,3.154-11.925c0.976-1.823,2.414-2.778,2.848-4.895c0.535-2.608,0.038-5.449-0.013-8.008
			c-0.046-2.413,0.147-3.151,1.461-4.904c1.154-1.54,2.443-3.132,2.592-5.161c-0.136,2.644-2.727,6.548-3.96,9.062
			c-0.946,1.927-1.896,7.062-4.033,7.383"/>
		<path fill="none" stroke="#000000" stroke-miterlimit="10" d="M317.12,402.73c0.412,2.573-2.09,5.001-4.024,2.874
			c-1.378-1.515-0.644-5.644-0.603-7.049c-0.227,2.23,1.282,7.905-1.756,8.743c-3.386,0.933-2.604-5.131-2.546-7.085"/>
		<path fill="#97C13D" stroke="#000000" stroke-miterlimit="10" d="M146.238,470.889c-6.029-0.048-25.32-6.045-25.786-10.651
			c6.273-0.538,10.036,2.418,15.698,2.473c0.213-2.598-2.031-9.359,2.959-10.01c0.902,3.146,2.741,7.529,4.922,10.426
			c2.793-2.352,5.43-7.982,10.94-8.056c0.52,6.915-8.196,14.977,5.748,18.798c-6.313-1.62-12.57-2.681-18.599-4.087"/>
		<path fill-rule="evenodd" clip-rule="evenodd" fill="#97C13D" stroke="#000000" stroke-miterlimit="10" d="M216.08,481.582
			c-13.322,1.812-27.489-7.395-40.604-5.749c-5.178,0.65-8.623,4.332-13.315,6.933c-7.511,4.161-11.099,4.264-20.384,3.711
			c-12.338-0.734-27.356-0.371-31.906,13.74c-6.295,19.517,35.548,34.163,51.303,38.21c14.459,3.714,30.947,2.543,45.01,7.627
			c2.981,1.078,6.331,4.73,9.11,5.62c19.719,6.312,43.052-5.886,61.028,6.723c16.57,11.621,26.09,22.59,47.048,26.167
			c13.289,2.269,34.399,10.612,47.796,5.917c5.314-1.864,11.038-6.638,12.412-12.411c1.688-7.093-4.592-12.057-2.861-18.312
			c11.13,1.747,48.786,13.51,51.382-5.66c-9.205-2.065-20.147-4.798-29.639-4.419c8.441-8.23,35.938,0.298,35.09-17.001
			c-13.71-5.353-28.065,8.235-41.428,7.05c1.876-5.153,28.09-18.302,21.233-24.797c-6.55-6.203-25.038,10.526-34.555,7.448
			c-0.338-10.1,7.961-13.077,10.433-21.484c-8.239,3.238-13.697,10.904-23.054,12.603c-10.325,1.874-21.067-1.836-30.372-6.583
			c-5.889-3.005-8.628-7.507-13.513-10.857c-8.801-6.035-16.812-2.277-26.488-0.523c-18.391,3.333-39.375,3.56-56.229-3.577
			c-8.494-3.598-17.576-3.754-25.995-7.336c-4.573-1.945-7.258-5.073-12.19-5.827"/>
		<path id="back_leg" fill="#97C13D" stroke="#000000" stroke-miterlimit="10" d="M209.309,490.004c0,0-12.336-7.567-20.01-6.112
			c-7.674,1.453-20.223,1.484-25.868-0.573s-12.488-4.236-16.317-2.208c-3.828,2.029-11.094,0.365-11.094,0.365
			s-17.799-0.406-22.143,1.197c-4.346,1.604-12.473-1.632-15.273,1.244c-2.8,2.876-5.462,7.159-7.43,6.402
			c-1.968-0.756,1.119-5.555,1.119-5.555s-4.541,4.466-6.508,3.709c-1.968-0.758-20.371,4.815-2.195-3.103
			c18.178-7.919,18.178-7.919,18.178-7.919s-8.385,3.891-9.293,1.848s0.923-2.693,13.197-5.541
			c12.275-2.846,27.473-2.424,28.881-2.561c1.407-0.137,12.53-2.636,26.486-2.804c13.955-0.169,35.342,0.602,38.066-0.609
			s15.182-2.181,21.901,1.193c6.722,3.374,7.752,4.222,7.752,4.222s8.535,0.12,12.396,3.299c3.859,3.178,3.859,3.178,3.859,3.178
			l-21.869,11.354L209.309,490.004z"/>
		<path fill="none" stroke="#000000" stroke-miterlimit="10" d="M201.661,467.302c2.388,1.703,6.591,3.723,5.807,7.252
			c-0.6,2.697-4.462,5.88-6.905,6.549c-3.281,0.898-6.146,0.609-9.416,0.006c-2.121-0.393-4.975-0.179-7.339-0.852
			c2.091,0.727,5.253,1.114,6.172,3.333"/>
		<path fill="none" stroke="#000000" stroke-miterlimit="10" d="M244.119,494.92"/>
		<path fill="none" stroke="#000000" stroke-miterlimit="10" d="M236.779,494.921"/>
		<path fill="none" stroke="#000000" stroke-miterlimit="10" d="M246.966,492.514"/>
		<path fill="none" stroke="#000000" stroke-miterlimit="10" d="M238.64,492.136"/>
		<path fill="none" stroke="#020202" stroke-width="5" stroke-miterlimit="10" d="M279.344,533.421
			c1.053-3.038,4.634-6.151,6.734-8.704"/>
		<path fill="none" stroke="#FFFFFF" stroke-width="0.5" stroke-miterlimit="10" d="M285.114,530.776
			c-0.171-0.053-0.342-0.166-0.474-0.309"/>
		<g>
			<circle fill="#594927" cx="282.432" cy="528.624" r="3.5"/>
			<path fill="none" stroke="#FFFFFF" stroke-width="0.5" stroke-miterlimit="10" d="M282.613,528.799
				c0.701,0.578,1.374,1.14,2.14,1.6c-0.361-0.317-0.731-0.511-1.135-0.754c-0.314-0.189-0.831-0.712-1.179-0.81
				c-0.537-0.152-1.393,0.078-1.946,0.06c-0.374-0.013-0.733,0.008-1.121-0.092"/>
			<path fill="none" stroke="#FFFFFF" stroke-width="0.5" stroke-miterlimit="10" d="M284.43,526.004
				c-0.119,0.145-0.239,0.289-0.357,0.435"/>
			<path fill="none" stroke="#FFFFFF" stroke-width="0.5" stroke-miterlimit="10" d="M279.744,526.68
				c0.161,0.132,0.321,0.265,0.482,0.397"/>
			<path fill="none" stroke="#FFFFFF" stroke-width="0.5" stroke-miterlimit="10" d="M280.937,530.737
				c-0.133,0.161-0.266,0.323-0.397,0.483"/>
			<path fill="none" stroke="#FFFFFF" stroke-width="0.5" stroke-miterlimit="10" d="M285.642,527.973
				c-0.142-0.021-0.267-0.023-0.4-0.005"/>
			<path fill="none" stroke="#FFFFFF" stroke-width="0.5" stroke-miterlimit="10" d="M281.665,525.428
				c0.059,0.214,0.08,0.447,0.107,0.656"/>
			<path fill="none" stroke="#FFFFFF" stroke-width="0.5" stroke-miterlimit="10" d="M282.315,531.226
				c-0.034,0.18-0.062,0.396-0.076,0.585"/>
			<path fill="none" stroke="#FFFFFF" stroke-width="0.5" stroke-miterlimit="10" d="M285.747,529.518
				c-0.164-0.051-0.309-0.143-0.426-0.271"/>
			<path fill="none" stroke="#FFFFFF" stroke-width="0.5" stroke-miterlimit="10" d="M282.857,525.357
				c0.007-0.044-0.033,0.39-0.037,0.536"/>
			<path fill="none" stroke="#FFFFFF" stroke-width="0.5" stroke-miterlimit="10" d="M285.258,526.768
				c-0.165,0.039-0.361,0.113-0.471,0.179"/>
			<path fill="none" stroke="#FFFFFF" stroke-width="0.5" stroke-miterlimit="10" d="M279.972,529.943
				c-0.244,0.05-0.462,0.127-0.695,0.156"/>
			<path fill="none" stroke="#FFFFFF" stroke-width="0.5" stroke-miterlimit="10" d="M283.411,531.075
				c0.204,0.142,0.338,0.349,0.323,0.59"/>
			<path fill="none" stroke="#FFFFFF" stroke-width="0.5" stroke-miterlimit="10" d="M280.822,526.353
				c-0.163-0.05-0.308-0.142-0.426-0.27"/>
		</g>
		<path fill="#6D2712" stroke="#000000" stroke-miterlimit="10" d="M332.163,501.527c-2.213,2.688-3.948,5.159-7.773,4.706
			c-1.685-0.199-3.241-1.171-4.641-2.439c1.51-1.858,2.269-6.803,2.398-9.18c0.145-2.623-3.449-5.982-5.054-8.084
			c-1.787-2.346-4.22-4.687-4.852-7.542c-0.83-3.752-0.728-7.314,1.043-10.706c0.773-1.479,1.608-3.094,2.78-4.366
			c1.263-1.37,1.695-0.723,3.197,0.051c3.106,1.601,2.549,3.54,2.852,6.565c0.328,3.295,0.608,6.608,0.661,9.869
			c0.068,4.262,0.959,7.438,3.392,10.842c1.1,1.537,7.699,8.941,5.573,10.799"/>
		<path fill="#93C13E" stroke="#000000" stroke-miterlimit="10" d="M299.339,516.754c2.395-2.908,4.85-5.762,5.399-9.332
			c0.165-1.07,0.411-3.806-0.328-4.635c-1.236-1.387-2.252-0.026-4.128,0.186c-1.545,0.175-3.464-0.937-4.643-0.227
			c-1.202,0.726-1.464,4.042-1.491,5.199c-0.071,3.231,1.092,8.2,4.653,9.05"/>
		<path fill="#93C13E" stroke="#000000" stroke-miterlimit="10" d="M280.713,533.468c-1.303-1.747-2.467-2.969-1.919-5.142
			c0.449-1.788,1.691-3.983,3.687-4.364c0.13-0.018,0.131-0.012,0.001,0.019c-4.258-1.843-2.696-7.693-1.817-11.286
			c0.4-1.645,1.507-3.945,1.009-5.565c-0.529-1.72-2.662-2.725-4.221-3.324c-0.259-0.1-4.155-0.532-3.262,0.281
			c0.764,0.695,1.588,1.358,2.404,2.012c-1.496-0.642-3.973-2.147-5.084-0.333c1.19,1.088,2.644,2.674,4.256,2.891
			c-1.203-1.351-3.958-1.784-5.304-0.839c1.484,1.359,3.125,2.916,5.038,3.542c-1.245-1.431-4.036-1.57-5.467-0.664
			c1.366,1.349,3.267,1.725,4.454,3.126c-2.963,7.659,0.623,14.027,5.872,19.682"/>
		<path fill="none" stroke="#000000" stroke-miterlimit="10" d="M245.583,574.169c-0.171,0.075-0.34,0.151-0.511,0.227"/>
		<path fill="none" stroke="#000000" stroke-width="4" stroke-miterlimit="10" d="M296.64,401.345
			c1.669,0.878,3.216-0.023,3.945,1.957c0.625,1.7-0.062,4.34-0.554,6.031c-0.521,1.791-4.395,0.81-6.083,0.525"/>
		<g opacity="0.4">
			<g>
				<path d="M294.485,405.677c0.332,0.286,0.593,0.452,1.015,0.585c0-1.285,0-2.572,0-3.857c-0.219,0.035-0.397,0.096-0.602,0.18
					c-0.127,0.059-0.259,0.103-0.395,0.132c0.169-0.031,0.13-0.038-0.12-0.021c-0.58,0.003-1.146-0.077-1.722-0.135
					c-1.087-0.108-2,0.992-2,2c0,1.173,0.916,1.892,2,2c0.577,0.058,1.142,0.116,1.722,0.135c0.806,0.026,1.425-0.313,2.179-0.433
					c0.866-0.137,1.469-1.115,1.469-1.929c0-0.915-0.615-1.66-1.469-1.929c-0.026-0.008-0.053-0.017-0.079-0.025
					c0.295,0.172,0.589,0.344,0.883,0.516c-0.018-0.016-0.035-0.031-0.053-0.046c-0.825-0.711-2.015-0.813-2.828,0
					C293.758,403.576,293.658,404.965,294.485,405.677L294.485,405.677z"/>
			</g>
		</g>
		<path fill="#56401D" d="M287.532,418.962c2.421,0.714,4.953-0.448,5.656-2.596l7.112-21.706c0.704-2.147-0.688-4.466-3.107-5.178
			l-11.807-3.476c-2.42-0.713-4.952,0.45-5.655,2.598l-7.112,21.704c-0.704,2.147,0.688,4.466,3.107,5.179L287.532,418.962z"/>
		<path opacity="0.4" fill="none" stroke="#FFFFFF" stroke-width="6" stroke-miterlimit="10" d="M290.367,409.182
			c-0.7,0.587-0.844,1.445-1.336,2.151c-0.476,0.678-1.175,1.181-1.851,1.691c-2.045,1.545-3.359,0.863-5.472-0.354"/>
		<path fill="none" stroke="#000000" stroke-width="3" stroke-miterlimit="10" d="M352.023,480.491
			c9.06,6.076,16.079,14.159,24.5,20.5"/>
		<path fill="none" stroke="#000000" stroke-width="3" stroke-miterlimit="10" d="M354.026,501.705
			c4.575-7.277,10.549-16.672,16.5-22.5"/>
		<g>
			<path fill="#97C13D" stroke="#000000" stroke-miterlimit="10" d="M385.031,484.833c3.385-3.952,4.805-6.373,6.599-11.504
				c1.979-5.659,8.696-12.006,13.802-5.385c9.549,12.384-10.522,21.41-19.9,17.389"/>
			<path fill="#97C13D" stroke="#000000" stroke-miterlimit="10" d="M388.531,466.333c1.305-3.081,0.754-18.713,8.01-15.534
				c3.082,1.351,1.865,11.094,0.115,13.176c-1.383,1.647-6.516,2.72-8.625,2.858"/>
			<path fill="#97C13D" stroke="#000000" stroke-miterlimit="10" d="M396.031,492.333c1.583,0.524,17.623-10.056,16.498-2.002
				c-0.511,3.66-13.393,6.305-14.498,2.002"/>
			<path fill="#97C13D" stroke="#000000" stroke-miterlimit="10" d="M196.031,461.833c-5.896-1.661-12.706-1.779-11.423-9.925
				c6.683-0.32,10.95,3.436,10.423,10.425"/>
			<path fill="#97C13D" stroke="#000000" stroke-miterlimit="10" d="M211.031,457.333c-12.041-5.494-30.49-31.749-3.615-28.495
				c13.1,1.587,4.454,19.624,3.115,27.495"/>
			<path fill="#97C13D" stroke="#000000" stroke-miterlimit="10" d="M172.531,462.833c-5.733,0.882-10.154-3.725-9.424-9.475
				c3.637,1.451,8.84,4.31,7.924,8.975"/>
			<path fill="#97C13D" stroke="#000000" stroke-miterlimit="10" d="M116.031,465.333c1.626-4.31,0.969-11.937-2.929-15.012
				c-4.562-3.599-19.426-5.896-18.569,3.135c0.785,8.284,15.964,8.949,21.398,13.325c0.12-0.763,0.21-1.662,0.1-2.448"/>
			<path fill="#97C13D" stroke="#000000" stroke-miterlimit="10" d="M104.031,507.833c-4.967,2.062-8.828,0.548-13,5.25
				c-1.553,1.749-7.41,7.973-7.016,10.252c1.312,7.601,18.882,1.638,21.416-3.504c2.138-4.337,0.127-7.016,0.1-10.998"/>
			<path fill="#97C13D" stroke="#000000" stroke-miterlimit="10" d="M279.531,449.833c0.477-4.577-4.906-16.773,5.396-13.5
				c3.191,1.014,4.687,5.147,2.515,8.802c-1.223,2.058-4.527,2.787-5.91,5.198"/>
		</g>
		<path fill="#97C13D" stroke="#000000" stroke-miterlimit="10" d="M327.531,457.833c5.125-0.064,21.525-8.187,21.921-14.426
			c-5.333-0.729-8.532,3.275-13.346,3.349c-0.181-3.518,1.727-12.675-2.516-13.556c-0.767,4.261-2.33,10.197-4.184,14.12
			c-2.374-3.185-4.616-10.811-9.301-10.91c-0.441,9.365,6.968,20.282-4.887,25.458c5.367-2.194,10.687-3.631,15.812-5.535"/>
		<g>
			<path fill="#BE2D26" stroke="#000000" stroke-miterlimit="10" d="M323.25,474.595c0,0,0.232,12.958,6.489,19.999
				c6.257,7.043,16.454,15.211,24.333,17.746c7.88,2.535,12.746,4.226,18.308,1.69c5.562-2.535,4.867-7.605,13.441-5.916
				c8.575,1.69,10.429,3.381,10.429,3.381l-9.733,13.802c0,0-8.574,2.817-19.466-1.972c-10.893-4.788-21.784-6.197-28.738-14.647
				c-6.952-8.451-14.135-24.507-14.135-24.507"/>
			<path fill="none" stroke="#000000" stroke-miterlimit="10" d="M368.904,515.72c-1.065-0.723-3.443,0.195-4.867,0.282
				c-2.154,0.133-4.343,0-6.5,0c-1.974,0-10.266,1.23-10.88-1.127"/>
			<ellipse opacity="0.4" stroke="#000000" stroke-miterlimit="10" cx="376.552" cy="517.833" rx="2.549" ry="2.496"/>
			<ellipse opacity="0.4" stroke="#000000" stroke-miterlimit="10" cx="380.723" cy="523.396" rx="1.391" ry="1.439"/>
			<path opacity="0.4" stroke="#000000" stroke-miterlimit="10" d="M383.547,507.869c0.234,0.031,0.469,0.043,0.704,0.048
				c0.511,0.18,1.026,0.244,1.551,0.252c-0.104,1.286-1.188,2.301-2.529,2.301c-1.372,0-2.481-1.062-2.538-2.392
				c0.726-0.244,1.46-0.326,2.2-0.354C383.128,507.789,383.327,507.839,383.547,507.869z"/>
			<path opacity="0.4" stroke="#000000" stroke-miterlimit="10" d="M392.715,509.979c0.966,0.39,2.006,0.77,2.762,1.444
				c-0.03,0.064-0.061,0.129-0.091,0.193c-0.191,0.424-0.383,0.875-0.51,1.335c-0.033,0.117-0.051,0.21-0.057,0.279
				c-0.047-0.005-0.103-0.005-0.182,0.01c-0.49,0.089-0.872,0.469-1.136,0.96c-0.98-0.346-1.685-1.257-1.685-2.337
				C391.817,511.107,392.17,510.437,392.715,509.979z"/>
			<ellipse opacity="0.4" stroke="#000000" stroke-miterlimit="10" cx="376.161" cy="523.352" rx="1.072" ry="1.043"/>
			<ellipse opacity="0.4" stroke="#000000" stroke-miterlimit="10" cx="371.946" cy="523.141" rx="1.072" ry="1.043"/>
			<path opacity="0.4" stroke="#000000" stroke-miterlimit="10" d="M368.904,523.978c-0.12,0-0.229,0.021-0.337,0.04
				c-0.207-0.134-0.418-0.261-0.651-0.355c-0.216-0.087-0.453-0.132-0.692-0.151c0-0.576,0.48-1.043,1.072-1.043
				s1.072,0.467,1.072,1.043c0,0.185-0.056,0.354-0.144,0.505C369.12,523.999,369.018,523.978,368.904,523.978z"/>
			<path opacity="0.4" stroke="#000000" stroke-miterlimit="10" d="M364.428,522.287c-0.061,0-0.114,0.016-0.172,0.021
				c-0.297-0.351-0.702-0.586-1.213-0.633c0.116-0.453,0.535-0.792,1.039-0.792c0.592,0,1.071,0.467,1.071,1.043
				c0,0.17-0.054,0.325-0.129,0.467C364.841,522.33,364.646,522.287,364.428,522.287z"/>
			<path opacity="0.4" stroke="#000000" stroke-miterlimit="10" d="M358.709,516.05c0.211-0.021,0.423-0.046,0.635-0.048
				c0.113-0.001,0.221-0.022,0.329-0.046c0.059,0.024,0.116,0.052,0.18,0.069c0.158,0.184,0.26,0.414,0.26,0.672
				c0,0.576-0.479,1.043-1.071,1.043c-0.593,0-1.072-0.467-1.072-1.043c0-0.165,0.043-0.32,0.113-0.459
				c0.143-0.015,0.286-0.051,0.427-0.115C358.574,516.093,358.641,516.071,358.709,516.05z"/>
			<path opacity="0.4" stroke="#000000" stroke-miterlimit="10" d="M353.212,518.111c-0.002,0-0.002,0-0.003-0.001
				c-0.061-0.031-0.12-0.063-0.181-0.095c-0.286-0.151-0.574-0.3-0.864-0.443c-0.285-0.143-0.58-0.158-0.868-0.096
				c-0.022-0.01-0.046-0.023-0.069-0.031c0.117-0.453,0.535-0.788,1.036-0.788c0.592,0,1.071,0.468,1.071,1.044
				c0,0.151-0.043,0.288-0.104,0.417C353.223,518.117,353.217,518.115,353.212,518.111z"/>
			<ellipse opacity="0.4" stroke="#000000" stroke-miterlimit="10" cx="361.256" cy="519.919" rx="1.073" ry="1.043"/>
			<ellipse opacity="0.4" stroke="#000000" stroke-miterlimit="10" cx="355.847" cy="517.859" rx="0.442" ry="0.516"/>
			<ellipse opacity="0.4" stroke="#000000" stroke-miterlimit="10" cx="358.628" cy="519.556" rx="0.442" ry="0.257"/>
			<ellipse opacity="0.4" stroke="#000000" stroke-miterlimit="10" cx="362.755" cy="517.331" rx="0.442" ry="0.515"/>
			<ellipse opacity="0.4" stroke="#000000" stroke-miterlimit="10" cx="365.102" cy="516.327" rx="0.442" ry="0.515"/>
			<ellipse opacity="0.4" stroke="#000000" stroke-miterlimit="10" cx="367.188" cy="519.391" rx="1.658" ry="1.94"/>
			<circle opacity="0.4" stroke="#000000" stroke-miterlimit="10" cx="364.08" cy="519.541" r="0.192"/>
			<path opacity="0.4" stroke="#000000" stroke-miterlimit="10" d="M371.883,513.971c0.371,0.388,0.613,0.914,0.613,1.512
				c0,1.188-0.909,2.152-2.027,2.152s-2.027-0.964-2.027-2.152c0-0.05,0.01-0.098,0.014-0.146c0.998-0.147,1.876-0.566,2.732-1.111
				C371.449,514.187,371.683,514.101,371.883,513.971z"/>
			<ellipse opacity="0.4" stroke="#000000" stroke-miterlimit="10" cx="370.729" cy="519.277" rx="0.441" ry="0.516"/>
			<ellipse opacity="0.4" stroke="#000000" stroke-miterlimit="10" cx="373.098" cy="520.658" rx="0.442" ry="0.515"/>
			<ellipse opacity="0.4" stroke="#000000" stroke-miterlimit="10" cx="384.634" cy="518.493" rx="2.071" ry="2.681"/>
			<ellipse opacity="0.4" stroke="#000000" stroke-miterlimit="10" cx="375.487" cy="513.846" rx="0.442" ry="0.516"/>
			<ellipse opacity="0.4" stroke="#000000" stroke-miterlimit="10" cx="384.851" cy="523.027" rx="0.442" ry="0.516"/>
			<ellipse opacity="0.4" stroke="#000000" stroke-miterlimit="10" cx="380.636" cy="519.699" rx="0.441" ry="0.515"/>
			<ellipse opacity="0.4" stroke="#000000" stroke-miterlimit="10" cx="380.875" cy="513.449" rx="1.441" ry="2.073"/>
			<ellipse opacity="0.4" stroke="#000000" stroke-miterlimit="10" cx="387.741" cy="512.974" rx="2.397" ry="2.812"/>
			<path opacity="0.4" stroke="#000000" stroke-miterlimit="10" d="M388.504,522.753c-0.367-0.603-0.597-1.373-0.597-2.227
				c0-1.903,1.104-3.446,2.463-3.446c0.562,0,1.074,0.274,1.487,0.72C390.436,519.189,389.648,521.323,388.504,522.753z"/>
			<ellipse opacity="0.4" stroke="#000000" stroke-miterlimit="10" cx="383.591" cy="525.131" rx="0.942" ry="0.709"/>
			<ellipse opacity="0.4" stroke="#000000" stroke-miterlimit="10" cx="378.095" cy="525.612" rx="0.441" ry="0.397"/>
			<ellipse opacity="0.4" stroke="#000000" stroke-miterlimit="10" cx="377.312" cy="510.729" rx="0.441" ry="0.515"/>
		</g>
	</g>
</g>
<text transform="matrix(1 0 0 1 25.5 61)" font-family="'AgentOrange'" font-size="56">game over</text>
</svg>
