<?xml version="1.0" encoding="utf-8"?>
<!-- Generator: Adobe Illustrator 16.0.0, SVG Export Plug-In . SVG Version: 6.00 Build 0)  -->
<!DOCTYPE svg PUBLIC "-//W3C//DTD SVG 1.1//EN" "http://www.w3.org/Graphics/SVG/1.1/DTD/svg11.dtd">
<svg version="1.1" xmlns="http://www.w3.org/2000/svg" xmlns:xlink="http://www.w3.org/1999/xlink" x="0px" y="0px" width="600px"
	 height="800px" viewBox="0 0 600 800" enable-background="new 0 0 600 800" xml:space="preserve">
<g id="road_background">
	<rect y="-4.889" fill="#443F44" stroke="#000000" stroke-miterlimit="10" width="600" height="804.889"/>
</g>
<g id="Layer_2">
	<rect y="739" fill="#AAB5AD" stroke="#000000" stroke-miterlimit="10" width="601.5" height="61"/>
	<rect x="0.192" y="681.979" fill="#443F44" stroke="#FFFFFF" stroke-miterlimit="10" width="599.808" height="56.021"/>
	<rect x="0.096" y="625.989" fill="#443F44" stroke="#FFFFFF" stroke-miterlimit="10" width="599.808" height="56.021"/>
	<rect x="0.192" y="568.989" fill="#443F44" stroke="#FFFFFF" stroke-miterlimit="10" width="599.808" height="56.021"/>
	<rect x="-1.903" y="512.99" fill="#443F44" stroke="#FFFFFF" stroke-miterlimit="10" width="603.809" height="56.021"/>
	<rect x="-1.813" y="340.582" fill="#443F44" stroke="#FFFFFF" stroke-miterlimit="10" width="603.809" height="56.021"/>
	<rect x="-0.313" y="285.084" fill="#443F44" stroke="#FFFFFF" stroke-miterlimit="10" width="603.809" height="56.021"/>
	<rect x="-1.813" y="229.587" fill="#443F44" stroke="#FFFFFF" stroke-miterlimit="10" width="603.809" height="56.021"/>
	<rect x="-3.313" y="174.09" fill="#443F44" stroke="#FFFFFF" stroke-miterlimit="10" width="603.809" height="56.021"/>
	<rect x="-3.313" y="118.593" fill="#443F44" stroke="#FFFFFF" stroke-miterlimit="10" width="603.809" height="56.021"/>
	<rect x="0.192" y="456.989" fill="#443F44" stroke="#FFFFFF" stroke-miterlimit="10" width="599.808" height="56.021"/>
	<rect y="395.333" fill="#AAB5AD" stroke="#000000" stroke-miterlimit="10" width="601.5" height="61"/>
	<rect y="-4.889" fill="#8ECEA3" stroke="#FFFFFF" stroke-miterlimit="10" width="604.575" height="119.994"/>
	<g>
		<g>
			<line fill="none" stroke="#E5E135" stroke-miterlimit="10" x1="0" y1="370" x2="6" y2="370"/>
			<line fill="none" stroke="#E5E135" stroke-miterlimit="10" stroke-dasharray="12,12" x1="18" y1="370" x2="588" y2="370"/>
			<line fill="none" stroke="#E5E135" stroke-miterlimit="10" x1="594" y1="370" x2="600" y2="370"/>
		</g>
	</g>
	<g>
		<g>
			<line fill="none" stroke="#E5E135" stroke-miterlimit="10" x1="0" y1="485.667" x2="6" y2="485.667"/>
			
				<line fill="none" stroke="#E5E135" stroke-miterlimit="10" stroke-dasharray="12,12" x1="18" y1="485.667" x2="588" y2="485.667"/>
			<line fill="none" stroke="#E5E135" stroke-miterlimit="10" x1="594" y1="485.667" x2="600" y2="485.667"/>
		</g>
	</g>
	<g>
		<g>
			<line fill="none" stroke="#E5E135" stroke-miterlimit="10" x1="0" y1="543.666" x2="6" y2="543.666"/>
			
				<line fill="none" stroke="#E5E135" stroke-miterlimit="10" stroke-dasharray="12,12" x1="18" y1="543.666" x2="588" y2="543.666"/>
			<line fill="none" stroke="#E5E135" stroke-miterlimit="10" x1="594" y1="543.666" x2="600" y2="543.666"/>
		</g>
	</g>
	<g>
		<g>
			<line fill="none" stroke="#E5E135" stroke-miterlimit="10" x1="0" y1="599.666" x2="6" y2="599.666"/>
			
				<line fill="none" stroke="#E5E135" stroke-miterlimit="10" stroke-dasharray="12,12" x1="18" y1="599.666" x2="588" y2="599.666"/>
			<line fill="none" stroke="#E5E135" stroke-miterlimit="10" x1="594" y1="599.666" x2="600" y2="599.666"/>
		</g>
	</g>
	<g>
		<g>
			<line fill="none" stroke="#E5E135" stroke-miterlimit="10" x1="0" y1="653.667" x2="6" y2="653.667"/>
			
				<line fill="none" stroke="#E5E135" stroke-miterlimit="10" stroke-dasharray="12,12" x1="18" y1="653.667" x2="588" y2="653.667"/>
			<line fill="none" stroke="#E5E135" stroke-miterlimit="10" x1="594" y1="653.667" x2="600" y2="653.667"/>
		</g>
	</g>
	<g>
		<g>
			<line fill="none" stroke="#E5E135" stroke-miterlimit="10" x1="0" y1="711.667" x2="6" y2="711.667"/>
			
				<line fill="none" stroke="#E5E135" stroke-miterlimit="10" stroke-dasharray="12,12" x1="18" y1="711.667" x2="588" y2="711.667"/>
			<line fill="none" stroke="#E5E135" stroke-miterlimit="10" x1="594" y1="711.667" x2="600" y2="711.667"/>
		</g>
	</g>
	<g>
		<g>
			<line fill="none" stroke="#E5E135" stroke-miterlimit="10" x1="0" y1="315.667" x2="6" y2="315.667"/>
			
				<line fill="none" stroke="#E5E135" stroke-miterlimit="10" stroke-dasharray="12,12" x1="18" y1="315.667" x2="588" y2="315.667"/>
			<line fill="none" stroke="#E5E135" stroke-miterlimit="10" x1="594" y1="315.667" x2="600" y2="315.667"/>
		</g>
	</g>
	<g>
		<g>
			<line fill="none" stroke="#E5E135" stroke-miterlimit="10" x1="0" y1="259" x2="6" y2="259"/>
			<line fill="none" stroke="#E5E135" stroke-miterlimit="10" stroke-dasharray="12,12" x1="18" y1="259" x2="588" y2="259"/>
			<line fill="none" stroke="#E5E135" stroke-miterlimit="10" x1="594" y1="259" x2="600" y2="259"/>
		</g>
	</g>
	<g>
		<g>
			<line fill="none" stroke="#E5E135" stroke-miterlimit="10" x1="0" y1="204.333" x2="6" y2="204.333"/>
			
				<line fill="none" stroke="#E5E135" stroke-miterlimit="10" stroke-dasharray="12,12" x1="18" y1="204.333" x2="588" y2="204.333"/>
			<line fill="none" stroke="#E5E135" stroke-miterlimit="10" x1="594" y1="204.333" x2="600" y2="204.333"/>
		</g>
	</g>
	<g>
		<g>
			<line fill="none" stroke="#E5E135" stroke-miterlimit="10" x1="0" y1="149.667" x2="6" y2="149.667"/>
			
				<line fill="none" stroke="#E5E135" stroke-miterlimit="10" stroke-dasharray="12,12" x1="18" y1="149.667" x2="588" y2="149.667"/>
			<line fill="none" stroke="#E5E135" stroke-miterlimit="10" x1="594" y1="149.667" x2="600" y2="149.667"/>
		</g>
	</g>
	<g id="XMLID_1116_">
		<g id="XMLID_1077_">
			<path fill="#9F9F9F" d="M561.327,421.531c0-4.256,3.449-7.706,7.705-7.706c4.255,0,7.704,3.45,7.704,7.706"/>
		</g>
		<g id="XMLID_981_">
			<path fill="#878787" d="M561.327,421.531c0-4.256,2.638-7.706,5.892-7.706s7.252,3.45,7.252,7.706"/>
		</g>
		<g id="XMLID_1062_">
			<polygon fill="#878787" points="561.779,418.358 557.701,418.358 553.621,420.171 553.621,421.531 561.327,421.531 			"/>
		</g>
		<g id="XMLID_1076_">
			<circle fill="#9F9F9F" cx="572.204" cy="420.624" r="2.72"/>
		</g>
		<g id="XMLID_224_">
			<path fill="#1D1D1B" d="M579.909,421.972h-2.266v-0.882h2.266c0.507,0,0.919-0.412,0.919-0.919v-4.985
				c0-0.507-0.412-0.92-0.919-0.92h-2.72c-0.992,0-1.8-0.807-1.8-1.8v-4.532c0-0.507-0.412-0.919-0.919-0.919v-0.882
				c0.993,0,1.801,0.808,1.801,1.801v4.532c0,0.507,0.411,0.919,0.918,0.919h2.72c0.993,0,1.801,0.808,1.801,1.801v4.985
				C581.71,421.164,580.902,421.972,579.909,421.972z"/>
		</g>
		<path fill="#1D1D1B" d="M569.032,413.362c-4.345,0-7.905,3.419-8.135,7.706l-6.835,0.021v-0.653l3.731-1.659h3.067v-2.685h-0.882
			v1.804h-2.373l-4.426,1.967v2.11l8.587-0.024v-0.439c0-4.006,3.259-7.264,7.265-7.264c3.858,0,7.024,3.024,7.25,6.828
			l-0.918,0.011v-0.913c0-1.742-1.418-3.16-3.16-3.16s-3.16,1.418-3.16,3.16c0,1.593,1.185,2.914,2.72,3.13v0.056h-2.731v0.881
			h3.613v-1.788h-0.441c-1.256,0-2.278-1.021-2.278-2.278s1.022-2.278,2.278-2.278c1.257,0,2.279,1.021,2.279,2.278v1.806
			l1.812-0.021v0.028h0.882v-0.475C577.178,417.018,573.523,413.362,569.032,413.362z"/>
		<g id="XMLID_221_">
			<polygon fill="#1D1D1B" points="562.922,424.237 560.42,424.237 560.42,423.356 562.45,423.356 565.039,419.473 565.772,419.962 
							"/>
		</g>
		<g id="XMLID_228_">
			<rect x="565.405" y="421.09" fill="#1D1D1B" width="3.173" height="0.882"/>
		</g>
		<g id="XMLID_229_">
			<rect x="558.607" y="419.276" fill="#FFFFFF" width="0.906" height="0.882"/>
		</g>
		<g id="XMLID_230_">
			<rect x="558.166" y="415.186" fill="#1D1D1B" width="0.882" height="2.266"/>
		</g>
	</g>
	<g id="XMLID_1_">
		<g id="XMLID_10_">
			<path fill="#9F9F9F" d="M26.8,788.445c0-4.256-3.431-7.706-7.665-7.706c-4.233,0-7.665,3.45-7.665,7.706"/>
		</g>
		<g id="XMLID_9_">
			<path fill="#878787" d="M26.8,788.445c0-4.256-2.624-7.706-5.861-7.706c-3.237,0-7.214,3.45-7.214,7.706"/>
		</g>
		<g id="XMLID_8_">
			<polygon fill="#878787" points="26.351,785.272 30.408,785.272 34.467,787.085 34.467,788.445 26.8,788.445 			"/>
		</g>
		<g id="XMLID_7_">
			<ellipse fill="#9F9F9F" cx="15.979" cy="787.538" rx="2.706" ry="2.72"/>
		</g>
		<g id="XMLID_6_">
			<path fill="#1D1D1B" d="M8.314,788.886h2.254v-0.882H8.314c-0.504,0-0.914-0.412-0.914-0.919V782.1c0-0.507,0.41-0.92,0.914-0.92
				h2.706c0.987,0,1.791-0.807,1.791-1.8v-4.532c0-0.507,0.41-0.919,0.914-0.919v-0.882c-0.988,0-1.792,0.808-1.792,1.801v4.532
				c0,0.507-0.409,0.919-0.913,0.919H8.314c-0.988,0-1.792,0.808-1.792,1.801v4.985C6.523,788.078,7.326,788.886,8.314,788.886z"/>
		</g>
		<path fill="#1D1D1B" d="M19.135,780.276c4.322,0,7.864,3.419,8.093,7.706l6.799,0.021v-0.653l-3.712-1.659h-3.052v-2.685h0.877
			v1.804h2.361l4.403,1.967v2.11l-8.542-0.024v-0.439c0-4.006-3.242-7.264-7.227-7.264c-3.838,0-6.988,3.024-7.213,6.828
			l0.914,0.011v-0.913c0-1.742,1.411-3.16,3.144-3.16c1.733,0,3.144,1.418,3.144,3.16c0,1.593-1.179,2.914-2.706,3.13v0.056h2.717
			v0.881h-3.595v-1.788h0.439c1.25,0,2.267-1.021,2.267-2.278s-1.017-2.278-2.267-2.278c-1.25,0-2.268,1.021-2.268,2.278v1.806
			l-1.803-0.021v0.028h-0.877v-0.475C11.032,783.932,14.667,780.276,19.135,780.276z"/>
		<g id="XMLID_5_">
			<polygon fill="#1D1D1B" points="25.214,791.151 27.703,791.151 27.703,790.271 25.683,790.271 23.108,786.387 22.378,786.876 			
				"/>
		</g>
		<g id="XMLID_4_">
			<rect x="19.587" y="788.004" fill="#1D1D1B" width="3.156" height="0.882"/>
		</g>
		<g id="XMLID_3_">
			<rect x="28.604" y="786.19" fill="#FFFFFF" width="0.901" height="0.882"/>
		</g>
		<g id="XMLID_2_">
			<rect x="29.068" y="782.1" fill="#1D1D1B" width="0.877" height="2.266"/>
		</g>
	</g>
	<ellipse fill="#90BECC" cx="307.592" cy="-23.637" rx="356.982" ry="95.245"/>
	<path fill="#8ECDA3" d="M5.634,14.226c2.386,6.071,8.811,10.373,10.067,16.554c0.189-2.331,0.928-3.354,1.817-5.06
		c0.665,3.117,2.046,6.178,2.918,9.225c5.822-4.53,13.341-7.692,20.495-10.375c0.506,5.751-5.212,11.139-5.278,17.578
		c0.785-2.928,3.465-5.045,5.878-6.43c-0.737,0.423,0.714,5.158,0.009,6.142c-1.284,1.79-3.172,0.805-5.059,1.336
		c-4.659,1.312-12.22,1.115-16.834-0.33C14.846,41.361,7.885,34.985,6.45,30.084C5.112,25.514,7.572,19.157,5.634,14.226z"/>
	<path fill="none" d="M143.667,62.333c-1.129-4.852-6.131-5.401-5.365-12.497c2.38,5.199,5.209,9.388,10.762,10.913
		c-1.918-5.366-3.239-10.632-4.786-16.158c2.073,6.77,9.942,13.104,12.757,20.173c-0.071-3.876,0.021-7.762-0.095-11.634
		c1.532,3.67,5.283,9.284,6.058,12c0.012-10.472,0.974-18.27-4.793-26.597C168.402,44.897,169,54.573,169,65.465
		c-0.167-3.676,1.62-6.934,5.235-7.029c0.227,3.873,1.323,9.792-1.304,12.328c-0.784-4.536,5.654-10.12,9.968-10.343
		c0.693,12.709-1.283,14.26-13.869,13.261c-6.395-0.508-21.097-5.69-24.697-11.349"/>
	<path fill="#8ECDA3" d="M256.333,73c0.36-0.856,1.062-1.71,0.553-3.22c-0.081-0.157-0.956-1.746-1.119-2.013
		c2.453,0.649,5.512,4.377,7.262,7.031c-0.018-2.344-0.044-4.69-0.08-7.034c1.157,3.121,3.219,5.814,5.248,8.367
		c0.292-3.858,1.588-9.247-0.596-12.195c2.097,2.954,5.663,5.584,6.712,8.861c1.132-2.601,3.062-4.815,5.22-6.396
		c0.145,2.998,1.028,5.783,2.298,8.558c5.616-7.13,6.534-11.907,11.203-2.198c1.486-7.157,3.105-14.028-2.749-19.51
		c2.525,7.183,10.351,10.213,9.981,18.846c0.94-1.289,2.958-2.493,3.931-3.695c4.767,14.906-40.553,18.814-46.531,5.264"/>
	<path fill="#8ECDA3" d="M581.667,39c-0.562-4.792,0.798-9.667,0.551-14.55c-0.879-0.537-1.604-1.351-2.468-1.865
		c5.24,6.435,11.071,4.598,10.734,14.377c2.379-4.255,2.502-17.084-0.73-21.028c3.285,1.755,7.95,5.127,8.614,8.83
		c0.732-5.275-3.247-10.484-5.435-14.827c7.401,6.159,14.978,17.977,6.197,27.243c-5.788,6.108-23.316,11.602-23.363-1.413
		c3.124-0.833,6.424,0.203,7.232,3.232"/>
	<path fill="#8ECDA3" d="M521,55.667c-0.466-4.048,1.209-7.728,0.637-11.812c1.995,2.943,5.028,5.503,6.043,8.943
		c0.935-6.843-6.052-11.543-11.159-14.525c8.598,2.761,17.526,4.487,18.495,15.192c0.354-4.25,0.16-10.212-3.162-13.177
		c4.591,0.245,12.641,5.553,13.564,10.241c-9.493,4.141-16.621,13.027-25.084,3.804"/>
	<path fill="#8ECDA3" d="M9.667,29c0-5.716-0.215-11.549,0.116-17.217c2.312-1.318,5.063-3.209,7.164-3.968
		C2.79,5.088-4.006,35.723,10.899,34.897c0.738-2.653,0.297-5.129-1.899-6.563"/>
	<path fill="#8ECDA3" d="M441.667,71c-0.071-3.887-3.935-7.653-5.85-10.616c0.135,2.458-0.021,4.98-1.466,6.698
		c-1.705-2.035-2.193-5.109-4.57-5.994c-0.388,2.153-1.483,3.916-2.244,5.843c-0.894-1.713-2.34-3.355-4.404-4.534
		c-0.912,3.278-3.324,6.702-5.931,9.166c7.75,0.381,15.931,0.404,23.697,0.002c-0.471-2.103,1.103-1.735,1.435-2.566"/>
	<text transform="matrix(1 0 0 1 231.667 24.3335)" font-family="'5x5-Pixel'" font-size="30">Finish</text>
</g>
</svg>
