<?xml version="1.0" encoding="utf-8"?>
<!-- Generator: Adobe Illustrator 16.0.0, SVG Export Plug-In . SVG Version: 6.00 Build 0)  -->
<!DOCTYPE svg PUBLIC "-//W3C//DTD SVG 1.1//EN" "http://www.w3.org/Graphics/SVG/1.1/DTD/svg11.dtd">
<svg version="1.1" id="Layer_1" xmlns="http://www.w3.org/2000/svg" xmlns:xlink="http://www.w3.org/1999/xlink" x="0px" y="0px"
	 width="612px" height="792px" viewBox="0 0 612 792" enable-background="new 0 0 612 792" xml:space="preserve">
<path fill="#FEFEFE" d="M369.104,377.128c0-13.353,0.051-26.704-0.054-40.055c-0.016-2.134,0.148-2.93,2.694-2.924
	c45.176,0.105,90.353,0.105,135.529,0c2.545-0.005,2.709,0.791,2.692,2.924c-0.104,13.352-0.053,26.704-0.053,40.055
	c-0.443,0.387-0.932,0.707-1.462,0.964c-2.339,0.589-4.658,0.609-6.94-0.257c-0.519-0.285-0.911-0.698-1.183-1.219
	c-1.596-7.881-1.596-7.881-9.888-7.868c-3.049-0.218-6.209,0.597-9.094-1.009c-0.527-0.512-0.852-1.142-1.124-1.831
	c-0.844-2.123,0.405-5.262-2.18-6.394c-3.039-1.333-6.46-0.612-9.721-0.449c-2.005,0.1-2.751,1.463-2.975,3.285
	c-0.221,1.79-0.16,3.67-1.425,5.184c-3.504,2.083-7.365,0.893-11.062,1.207c-1.948,0.165-3.956-0.302-5.813,0.581
	c-2.834,1.902-1.062,4.871-1.683,7.286c-0.422,0.851-1.142,1.324-2.01,1.623c-2.772,0.662-5.585,0.425-8.39,0.447
	c-3.19-0.042-6.439,0.49-9.487-0.93c-0.519-0.363-0.908-0.841-1.173-1.415c-0.423-0.996-0.611-2.068-0.549-3.134
	c0.188-3.125-1.087-4.685-4.357-4.53c-1.603,0.075-3.227-0.151-4.501-1.351c-2.751-8.39-2.751-8.39-12.295-8.391
	c-1.1,0-2.198,0-3.298,0c-8.644,0.003-8.644,0.003-10.896,8.06c-2.015,2.656-5.674,0.716-7.863,2.849
	c-1.963,2.299-0.341,5.946-2.998,7.976C374.618,379,371.772,379.154,369.104,377.128z"/>
<path fill-rule="evenodd" clip-rule="evenodd" fill="#FEFEFE" d="M369.104,423.331c0-12.467,0-24.936,0-37.403
	c3.05-2.125,6.115-2.141,9.198-0.068c1.124,1.575,1.287,3.409,1.308,5.246c0.1,8.977,0.097,17.955,0.002,26.932
	c-0.02,1.835-0.177,3.671-1.263,5.271C375.274,425.495,372.191,425.493,369.104,423.331z"/>
<path fill-rule="evenodd" clip-rule="evenodd" fill="#020202" d="M509.914,433.232c-1.994-0.124-3.99-0.22-5.982-0.379
	c-2.358-0.188-3.552,0.911-3.146,3.207c1.023,5.794-1.999,6.93-6.827,6.204c-0.9-0.136-1.82-0.135-2.73-0.195
	c-2.038-2.754-1.856-5.658-0.595-8.638c2.934-2.636,6.82-1.441,10.146-2.527c2.209-0.29,4.422-0.405,6.643-0.084
	c0.973,0.166,1.75,0.706,2.492,1.312C509.914,432.498,509.914,432.866,509.914,433.232z"/>
<path fill-rule="evenodd" clip-rule="evenodd" fill="#020202" d="M369.104,423.331c2.952,0.106,5.904,0.213,8.856,0.318
	c2.061,3.105,2.11,6.195-0.073,9.266c-2.929,0.106-5.855,0.211-8.783,0.317C369.104,429.932,369.104,426.632,369.104,423.331z"/>
<path fill-rule="evenodd" clip-rule="evenodd" fill="#020202" d="M378.029,385.457c-2.976,0.158-5.95,0.315-8.925,0.471
	c0-2.934,0-5.867,0-8.8c2.941-0.089,5.883-0.179,8.823-0.269C380.017,379.701,379.957,382.568,378.029,385.457z"/>
<path fill-rule="evenodd" clip-rule="evenodd" fill="#F2DB0C" d="M378.029,385.457c-0.034-2.865-0.068-5.732-0.102-8.598
	c1.122-2.761-0.539-5.879,1.101-8.575c14.314-2.12,28.652-1.771,43.01-0.518c1.834,0.16,2.603,0.858,2.609,2.664
	c0.009,1.823-0.183,3.659,0.204,5.47c0.208,0.348,0.419,0.695,0.628,1.042c1.523,2.171,1.07,4.729,1.417,7.118
	c1.886,2.453,3.995,1.839,6.147,0.449c1.048-2.356,0.111-5.213,1.887-7.37c3.113-0.107,6.227-0.215,9.341-0.322
	c1.678,2.212,0.874,4.888,1.393,7.306c2.234,3.028,5.514,0.452,8.118,1.519c0.503,0.397,0.858,0.887,1.095,1.479
	c0.789,11.631,0.722,23.253,0.063,34.867c-0.2,0.578-0.53,1.092-0.962,1.526c-2.447,1.146-5.46-1.019-7.704,1.302
	c-1.749,2.488-0.055,5.873-2.152,8.254c-3.057-0.2-6.111-0.398-9.167-0.597c-1.812-2.085-1.047-4.774-1.701-7.115
	c-2.019-2.674-4.105-2.457-6.232-0.155c-0.812,2.512,0.299,5.39-1.503,7.688c-0.164,0.171-0.353,0.303-0.568,0.397
	c-0.251,0.696-0.313,1.418-0.308,2.153c0.054,6.552,0.604,5.666-6.299,6.134c-5.802,0.393-11.594,0.689-17.401,0.959
	c-6.595,0.306-13.027-1.363-19.58-1.062c-2.087,0.096-3.039-0.757-2.898-2.873c0.108-1.634-0.14-3.285,0.206-4.911
	c-0.26-0.258-0.521-0.516-0.782-0.775c0.024-3.089,0.049-6.178,0.073-9.267C378.602,410.92,378.471,398.189,378.029,385.457z"/>
<path fill-rule="evenodd" clip-rule="evenodd" fill="#F2DB0C" d="M501.119,432.052c-3.1,1.971-6.638,0.286-9.864,1.188
	c-1.698,2.486,0.621,5.711-1.493,8.121c-6.239-0.449-12.396,1.702-18.559,0.992c-7.817-0.899-15.622-0.797-23.443-0.904
	c-5.755-0.079-2.46-4.414-3.142-6.874c2.238-2.555,5.29-1.398,8.017-1.771c2.893-0.395,5.955,0.996,8.661-0.864
	c-0.063-2.531-0.501-5.062,0.381-7.519c0.96-2.103,2.885-2.396,4.851-2.508c1.816-0.104,3.586-0.175,4.066-2.45
	c0.535-10.398,0.192-20.783,0.134-31.149c-1.678-3.995-5.069-1.101-7.545-1.866c-0.57-0.158-0.995-0.495-1.286-1.006
	c-1.76-7.861-1.76-7.827-9.975-7.904c-2.501-0.023-5.087,0.482-7.456-0.825c0.117-2.808-0.833-5.688,0.563-8.411
	c12.473,0.213,24.883-3.082,37.41-0.587c2.116,0.421,4.365,0.067,6.545,0.081c2.942,0.519,2.138,3.42,3.256,5.095
	c1.657,4.138,6.519,1.674,8.902,4.304l-0.084-0.082c2.017,2.383,1.692,5.068,1.018,7.792c-0.211,0.529-0.56,0.964-1.02,1.298
	c-2.715,0.577-5.515-0.607-8.213,0.359c-0.356,0.29-0.689,0.602-0.968,0.966c-0.139,2.399-1.812,5.125,1.534,6.724
	c2.832,0.435,5.998-0.684,8.353,1.857c1.542,5.538,1.052,11.111,0.329,16.688c-1.875,3.742-5.575,2.909-8.705,3.487
	c-2.959,1.289-2.107,3.26-0.926,5.27c0.484,0.137,0.958,0.251,1.458,0.299c2.197,0.191,4.442-0.181,6.569,0.677
	c0.579,0.279,1.021,0.693,1.348,1.242C502.873,426.643,503.146,429.448,501.119,432.052z"/>
<path fill-rule="evenodd" clip-rule="evenodd" fill="#020202" d="M444.466,376.711c4.175-0.06,8.379,0.166,12.517-0.259
	c4.726-0.483,6.803,1.011,5.862,5.902c-0.204,1.058-0.112,2.171-0.158,3.259c2.799,0.973,5.615,0.116,8.425,0.086
	c0.568-0.196,1.014-0.041,1.339,0.462c-0.103,11.677-0.204,23.356-0.307,35.033c-1.72,2.961-4.56,1.02-6.835,1.547
	c-1.12,0.259-3.065-0.896-2.692,1.698c0.295,2.901,0.44,5.797-0.21,8.674c-5.52,1.416-11.138,0.297-16.7,0.646
	c-0.709,0.063-1.289-0.178-1.742-0.728l0.157,0.038c0.429-3.254-1.099-6.688,0.896-9.801c2.532-0.845,5.092-0.532,7.653-0.173
	l0.509,0.097l0.514-0.06c1.525-4.927,0.569-9.979,0.616-14.961c0.071-7.439,0.465-14.896-0.255-22.324
	c-2.896-0.378-5.761,0.214-8.644,0.287c-0.629,0.285-1.104,0.122-1.427-0.489c0.094-2.942,0.189-5.884,0.286-8.828
	C444.271,376.817,444.466,376.711,444.466,376.711z"/>
<path fill-rule="evenodd" clip-rule="evenodd" fill="#020202" d="M501.119,432.052c-0.202-2.85-0.404-5.7-0.606-8.551
	c-1.228-2.938-1.46-5.863,0.075-8.774c1.771-6.688,1.854-13.373-0.058-20.052c-1.253-2.936-1.353-5.868,0.017-8.798
	c0.17-2.922,0.341-5.844,0.512-8.766c2.594,0.021,5.186,0.043,7.778,0.064c-0.007,16.122-0.016,32.244-0.023,48.366
	c-0.001,2.189,0.242,4.416-1.027,6.4C505.564,431.978,503.342,432.015,501.119,432.052z"/>
<path fill-rule="evenodd" clip-rule="evenodd" fill="#050505" d="M387.883,366.941c-0.199-9.619-0.199-9.619,9.628-9.619
	c4.008,0,8.043,0.302,12.014-0.079c4.607-0.442,6.952,0.754,6.018,5.818c-0.228,1.231-0.016,2.543-0.007,3.818
	c-3.939,1.93-8.134,0.813-12.174,0.775C398.209,367.604,392.958,368.802,387.883,366.941z"/>
<path fill-rule="evenodd" clip-rule="evenodd" fill="#050505" d="M463.52,366.903c0.012-9.582,0.012-9.582,9.75-9.581
	c8.111,0,8.111,0,8.012,9.603C475.36,368.276,469.438,368.309,463.52,366.903z"/>
<path fill-rule="evenodd" clip-rule="evenodd" fill="#020202" d="M501.143,377.192c-2.271-0.17-4.548-0.52-6.812-0.457
	c-2.21,0.062-3.295-0.726-3.3-2.94c-0.66-1.524-0.229-3.13-0.348-4.696c-0.023-0.55,0.158-1.021,0.541-1.417
	c0.353-0.082,0.701-0.216,1.058-0.237c8.175-0.491,8.17-0.489,8.533,7.604C500.849,375.767,501.03,376.478,501.143,377.192z"/>
<path fill-rule="evenodd" clip-rule="evenodd" fill="#020202" d="M434.931,377.14c-0.491,2.963,1.048,6.15-0.982,8.944
	c-0.247-0.033-0.494-0.065-0.74-0.096c-2.237-0.054-4.478-0.265-6.701,0.199c-0.526,0.159-0.946,0.023-1.244-0.449
	c0.072-2.931,0.145-5.861,0.217-8.793C428.63,377.009,431.781,377.074,434.931,377.14z"/>
<path fill-rule="evenodd" clip-rule="evenodd" fill="#050505" d="M415.746,442.507c-0.638,9.419-0.638,9.419-10.255,9.419
	c-2.564,0-5.127,0-7.69,0c-9.757,0-9.757,0-10.129-9.428c5.385-2.187,11.001-0.786,16.491-0.878
	C407.994,441.556,412.044,440.34,415.746,442.507z"/>
<path fill-rule="evenodd" clip-rule="evenodd" fill="#050505" d="M481.474,442.469c-0.422,9.458-0.422,9.458-9.57,9.458
	c-8.069-0.001-8.069-0.001-8.563-9.44C469.383,440.844,475.428,440.855,481.474,442.469z"/>
<path fill-rule="evenodd" clip-rule="evenodd" fill="#020202" d="M435.013,423.708c-0.021,2.921-0.039,5.843-0.059,8.766
	c-3.144,0.141-6.29,0.28-9.436,0.419c-0.079-3.097-0.158-6.193-0.236-9.291C428.539,422.396,431.785,422.211,435.013,423.708z"/>
<path fill-rule="evenodd" clip-rule="evenodd" fill="#020202" d="M416.318,386.384c-0.085,10.521-0.122,21.043-0.3,31.563
	c-0.03,1.688,0.87,3.619-0.78,5.093c-7.676-0.615-15.365-0.215-23.046-0.222c-2.75-0.002-3.924-0.694-3.877-3.689
	c0.154-9.704,0.152-19.413,0.005-29.117c-0.05-3.272,1.49-4.063,4.33-4.088c7.323-0.063,14.649,0.229,21.97-0.164
	C415.394,385.408,415.959,385.617,416.318,386.384z"/>
<path fill-rule="evenodd" clip-rule="evenodd" fill="#5E5D5E" d="M501.051,414.525c-0.18,2.992-0.358,5.983-0.537,8.976
	c-0.261,0.067-0.451-0.018-0.573-0.257c-2.528-0.799-5.061-0.718-7.597-0.032c-0.338,0.188-0.691,0.224-1.061,0.105
	c-1.015-2.921-0.885-5.854-0.085-8.791c3.153-0.194,6.307-0.387,9.459-0.58c0.307-0.066,0.612-0.134,0.918-0.2
	C501.4,414.006,501.226,414.265,501.051,414.525z"/>
<path fill-rule="evenodd" clip-rule="evenodd" fill="#5E565E" d="M500.547,385.877c0.18,2.953,0.358,5.906,0.538,8.858
	c0.589,0.708,0.428,0.998-0.483,0.873c-2.946,0.044-5.892,0.088-8.837,0.131c-2.019-3.184-1.253-6.49-0.427-9.797l-0.111,0.105
	c0.372-0.479,0.816-0.535,1.323-0.234c0.881,1.024,0.959,2.297,1.105,3.556c0.187,1.594,0.059,3.54,2.349,3.616
	c2.223,0.073,2.461-1.705,2.618-3.391c0.084-0.9,0.139-1.804,0.404-2.679c0.195-0.495,0.491-0.918,0.896-1.264
	C500.118,385.761,500.326,385.836,500.547,385.877z"/>
<path fill-rule="evenodd" clip-rule="evenodd" fill="#020202" d="M491.338,385.942c-0.035,3.273-0.589,6.569,0.426,9.797
	C488.886,392.594,489.596,389.29,491.338,385.942z"/>
<path fill-rule="evenodd" clip-rule="evenodd" fill="#020202" d="M491.198,414.526c0.029,2.93,0.058,5.86,0.085,8.791
	C489.431,420.404,489.562,417.474,491.198,414.526z"/>
<path fill-rule="evenodd" clip-rule="evenodd" fill="#5E565E" d="M492.344,423.212c2.54-1.478,5.072-1.544,7.598,0.032
	C497.408,423.233,494.876,423.223,492.344,423.212z"/>
<path fill-rule="evenodd" clip-rule="evenodd" fill="#5E5D5E" d="M492.325,386.107c2.539-0.011,5.077-0.022,7.616-0.033
	c0.011,1.629-0.076,3.266,0.06,4.884c0.24,2.875-1.077,3.769-3.829,3.76c-2.711-0.009-4.109-0.816-3.873-3.727
	C492.43,389.373,492.324,387.735,492.325,386.107z"/>
</svg>
