<?xml version="1.0" encoding="utf-8"?>
<!-- Generator: Adobe Illustrator 16.0.0, SVG Export Plug-In . SVG Version: 6.00 Build 0)  -->
<!DOCTYPE svg PUBLIC "-//W3C//DTD SVG 1.1//EN" "http://www.w3.org/Graphics/SVG/1.1/DTD/svg11.dtd">
<svg version="1.1" id="Layer_1" xmlns="http://www.w3.org/2000/svg" xmlns:xlink="http://www.w3.org/1999/xlink" x="0px" y="0px"
	 width="612px" height="792px" viewBox="0 0 612 792" enable-background="new 0 0 612 792" xml:space="preserve">
<path fill="#FEFEFE" d="M371,422c0,12.138-0.047,24.274,0.049,36.411c0.015,1.939-0.136,2.663-2.449,2.658
	c-41.066-0.096-82.133-0.096-123.2,0c-2.313,0.005-2.463-0.719-2.448-2.658C243.047,446.274,243,434.137,243,422
	c0.403-0.352,0.847-0.643,1.329-0.877c2.126-0.535,4.234-0.554,6.31,0.234c0.471,0.259,0.828,0.634,1.075,1.108
	c1.45,7.164,1.45,7.164,8.988,7.152c2.772,0.198,5.645-0.543,8.267,0.917c0.479,0.465,0.773,1.038,1.022,1.664
	c0.767,1.93-0.368,4.783,1.981,5.812c2.763,1.211,5.872,0.556,8.835,0.408c1.824-0.091,2.501-1.33,2.705-2.986
	c0.2-1.627,0.146-3.336,1.295-4.712c3.185-1.894,6.695-0.812,10.055-1.097c1.771-0.15,3.596,0.274,5.285-0.528
	c2.576-1.729,0.965-4.428,1.529-6.623c0.384-0.773,1.039-1.203,1.828-1.476c2.519-0.602,5.077-0.387,7.625-0.406
	c2.9,0.038,5.854-0.445,8.625,0.845c0.471,0.33,0.825,0.765,1.065,1.286c0.385,0.905,0.556,1.88,0.499,2.85
	c-0.17,2.841,0.988,4.259,3.961,4.118c1.457-0.068,2.933,0.138,4.092,1.228c2.5,7.627,2.5,7.627,11.176,7.628c1,0,1.999,0,2.999,0
	c7.856-0.003,7.856-0.003,9.903-7.327c1.832-2.414,5.158-0.65,7.148-2.59c1.784-2.09,0.31-5.405,2.725-7.25
	C365.988,420.299,368.575,420.158,371,422z"/>
<path fill-rule="evenodd" clip-rule="evenodd" fill="#FEFEFE" d="M371,380c0,11.333,0,22.667,0,34
	c-2.772,1.932-5.559,1.946-8.361,0.062c-1.021-1.432-1.17-3.099-1.188-4.769c-0.091-8.16-0.088-16.321-0.002-24.481
	c0.018-1.669,0.16-3.337,1.147-4.791C365.391,378.033,368.193,378.034,371,380z"/>
<path fill-rule="evenodd" clip-rule="evenodd" fill="#020202" d="M243,371c1.813,0.112,3.627,0.199,5.438,0.344
	c2.145,0.171,3.229-0.828,2.86-2.915c-0.931-5.267,1.817-6.3,6.206-5.64c0.818,0.123,1.654,0.122,2.482,0.178
	c1.852,2.503,1.687,5.144,0.541,7.852c-2.667,2.396-6.2,1.311-9.223,2.298c-2.008,0.263-4.02,0.368-6.038,0.076
	c-0.884-0.151-1.591-0.642-2.266-1.192C243,371.667,243,371.333,243,371z"/>
<path fill-rule="evenodd" clip-rule="evenodd" fill="#020202" d="M371,380c-2.684-0.097-5.367-0.193-8.051-0.29
	c-1.873-2.822-1.918-5.631,0.066-8.423c2.662-0.096,5.322-0.191,7.984-0.287C371,374,371,377,371,380z"/>
<path fill-rule="evenodd" clip-rule="evenodd" fill="#020202" d="M362.888,414.429c2.704-0.144,5.408-0.286,8.112-0.429
	c0,2.667,0,5.333,0,8c-2.674,0.081-5.348,0.163-8.021,0.244C361.08,419.661,361.135,417.055,362.888,414.429z"/>
<path fill-rule="evenodd" clip-rule="evenodd" fill="#F2DB0C" d="M362.888,414.429c0.03,2.604,0.062,5.21,0.092,7.815
	c-1.021,2.51,0.49,5.345-1.001,7.795c-13.012,1.927-26.045,1.61-39.097,0.471c-1.667-0.146-2.366-0.78-2.372-2.422
	c-0.008-1.657,0.166-3.326-0.186-4.973c-0.189-0.316-0.381-0.632-0.57-0.947c-1.385-1.974-0.974-4.299-1.289-6.471
	c-1.714-2.229-3.631-1.672-5.588-0.407c-0.953,2.142-0.102,4.738-1.715,6.699c-2.83,0.098-5.661,0.195-8.491,0.293
	c-1.525-2.011-0.794-4.443-1.265-6.642c-2.032-2.752-5.012-0.41-7.38-1.381c-0.457-0.361-0.781-0.806-0.996-1.345
	c-0.717-10.572-0.656-21.138-0.058-31.695c0.182-0.525,0.481-0.992,0.874-1.388c2.225-1.042,4.963,0.926,7.004-1.184
	c1.589-2.262,0.049-5.339,1.957-7.502c2.777,0.181,5.555,0.361,8.332,0.542c1.648,1.895,0.952,4.34,1.547,6.468
	c1.835,2.431,3.731,2.233,5.665,0.142c0.738-2.283-0.271-4.9,1.366-6.99c0.149-0.154,0.321-0.274,0.517-0.36
	c0.229-0.633,0.285-1.289,0.279-1.957c-0.048-5.956-0.549-5.151,5.727-5.576c5.273-0.357,10.539-0.627,15.818-0.872
	c5.994-0.277,11.842,1.239,17.799,0.965c1.896-0.087,2.763,0.688,2.635,2.611c-0.099,1.485,0.127,2.986-0.188,4.465
	c0.236,0.234,0.475,0.469,0.711,0.704c-0.021,2.809-0.044,5.616-0.066,8.424C362.367,391.282,362.486,402.854,362.888,414.429z"/>
<path fill-rule="evenodd" clip-rule="evenodd" fill="#F2DB0C" d="M250.995,372.072c2.817-1.791,6.033-0.26,8.967-1.079
	c1.543-2.261-0.564-5.191,1.357-7.383c5.672,0.409,11.267-1.547,16.87-0.901c7.106,0.817,14.2,0.725,21.311,0.822
	c5.231,0.071,2.236,4.012,2.856,6.248c-2.035,2.322-4.809,1.271-7.288,1.61c-2.628,0.358-5.412-0.905-7.873,0.786
	c0.058,2.301,0.456,4.602-0.347,6.835c-0.872,1.91-2.622,2.177-4.409,2.279c-1.65,0.095-3.259,0.158-3.696,2.227
	c-0.487,9.453-0.175,18.894-0.121,28.316c1.525,3.631,4.608,1.001,6.858,1.696c0.519,0.144,0.905,0.45,1.17,0.915
	c1.599,7.146,1.599,7.114,9.066,7.185c2.273,0.021,4.625-0.438,6.778,0.75c-0.107,2.553,0.757,5.171-0.512,7.646
	c-11.338-0.193-22.62,2.802-34.007,0.534c-1.924-0.383-3.968-0.062-5.95-0.073c-2.674-0.472-1.943-3.109-2.959-4.632
	c-1.507-3.762-5.926-1.521-8.093-3.912l0.076,0.074c-1.833-2.166-1.538-4.607-0.925-7.084c0.191-0.48,0.508-0.876,0.927-1.18
	c2.467-0.524,5.012,0.552,7.465-0.326c0.324-0.264,0.627-0.547,0.88-0.878c0.126-2.181,1.646-4.659-1.396-6.111
	c-2.574-0.396-5.452,0.621-7.592-1.688c-1.401-5.034-0.957-10.101-0.3-15.17c1.705-3.401,5.069-2.644,7.914-3.169
	c2.69-1.173,1.915-2.964,0.842-4.79c-0.441-0.125-0.872-0.229-1.326-0.272c-1.998-0.174-4.038,0.164-5.972-0.615
	c-0.526-0.254-0.927-0.63-1.224-1.129C249.4,376.989,249.153,374.439,250.995,372.072z"/>
<path fill-rule="evenodd" clip-rule="evenodd" fill="#020202" d="M302.495,422.379c-3.795,0.055-7.617-0.15-11.378,0.235
	c-4.295,0.439-6.183-0.919-5.328-5.365c0.185-0.962,0.102-1.974,0.143-2.963c-2.543-0.884-5.104-0.105-7.658-0.078
	c-0.516,0.178-0.921,0.037-1.217-0.42c0.093-10.615,0.186-21.23,0.279-31.846c1.563-2.691,4.145-0.927,6.214-1.406
	c1.017-0.235,2.786,0.814,2.447-1.544c-0.268-2.637-0.401-5.27,0.19-7.885c5.018-1.287,10.125-0.27,15.181-0.586
	c0.644-0.059,1.172,0.161,1.583,0.66l-0.142-0.034c-0.39,2.958,0.998,6.079-0.814,8.909c-2.303,0.769-4.629,0.484-6.958,0.157
	l-0.462-0.088l-0.467,0.055c-1.387,4.479-0.517,9.07-0.56,13.6c-0.064,6.763-0.422,13.54,0.232,20.293
	c2.632,0.344,5.236-0.194,7.856-0.261c0.572-0.259,1.005-0.11,1.298,0.444c-0.086,2.674-0.173,5.349-0.261,8.024
	C302.671,422.282,302.495,422.379,302.495,422.379z"/>
<path fill-rule="evenodd" clip-rule="evenodd" fill="#020202" d="M250.995,372.072c0.184,2.591,0.367,5.183,0.551,7.773
	c1.116,2.67,1.328,5.33-0.068,7.976c-1.61,6.08-1.685,12.156,0.053,18.229c1.139,2.668,1.229,5.334-0.015,7.997
	c-0.155,2.656-0.311,5.312-0.466,7.969c-2.357-0.02-4.714-0.039-7.071-0.059c0.007-14.655,0.014-29.311,0.021-43.966
	c0.001-1.99-0.219-4.015,0.934-5.818C246.954,372.14,248.975,372.106,250.995,372.072z"/>
<path fill-rule="evenodd" clip-rule="evenodd" fill="#050505" d="M353.93,431.26c0.182,8.744,0.182,8.744-8.752,8.744
	c-3.643,0-7.312-0.274-10.92,0.071c-4.189,0.402-6.32-0.686-5.471-5.289c0.207-1.119,0.015-2.312,0.006-3.471
	c3.581-1.754,7.395-0.739,11.066-0.704C344.543,430.657,349.316,429.568,353.93,431.26z"/>
<path fill-rule="evenodd" clip-rule="evenodd" fill="#050505" d="M285.174,431.295c-0.01,8.71-0.01,8.71-8.863,8.709
	c-7.374,0-7.374,0-7.283-8.729C274.411,430.047,279.793,430.017,285.174,431.295z"/>
<path fill-rule="evenodd" clip-rule="evenodd" fill="#020202" d="M250.974,421.941c2.064,0.154,4.133,0.473,6.192,0.415
	c2.009-0.056,2.995,0.66,2.999,2.673c0.601,1.386,0.208,2.846,0.316,4.269c0.021,0.5-0.143,0.929-0.491,1.288
	c-0.32,0.074-0.638,0.196-0.961,0.216c-7.432,0.446-7.426,0.444-7.757-6.912C251.241,423.237,251.076,422.591,250.974,421.941z"/>
<path fill-rule="evenodd" clip-rule="evenodd" fill="#020202" d="M311.162,421.989c0.446-2.693-0.953-5.591,0.894-8.13
	c0.224,0.029,0.448,0.059,0.673,0.087c2.033,0.049,4.07,0.24,6.091-0.181c0.479-0.145,0.86-0.021,1.131,0.408
	c-0.065,2.664-0.131,5.328-0.196,7.993C316.89,422.108,314.025,422.049,311.162,421.989z"/>
<path fill-rule="evenodd" clip-rule="evenodd" fill="#050505" d="M328.602,362.569c0.58-8.562,0.58-8.562,9.322-8.562
	c2.33,0,4.66,0,6.99,0c8.869,0,8.869,0,9.207,8.57c-4.895,1.987-10,0.714-14.99,0.798
	C335.648,363.434,331.967,364.539,328.602,362.569z"/>
<path fill-rule="evenodd" clip-rule="evenodd" fill="#050505" d="M268.854,362.604c0.383-8.598,0.383-8.598,8.699-8.598
	c7.336,0.001,7.336,0.001,7.785,8.581C279.844,364.081,274.35,364.069,268.854,362.604z"/>
<path fill-rule="evenodd" clip-rule="evenodd" fill="#020202" d="M311.088,379.657c0.018-2.655,0.035-5.311,0.053-7.968
	c2.858-0.128,5.718-0.255,8.577-0.382c0.072,2.815,0.144,5.631,0.216,8.446C316.973,380.85,314.021,381.019,311.088,379.657z"/>
<path fill-rule="evenodd" clip-rule="evenodd" fill="#020202" d="M328.081,413.586c0.077-9.564,0.11-19.129,0.272-28.692
	c0.027-1.534-0.791-3.289,0.709-4.629c6.979,0.559,13.968,0.195,20.95,0.201c2.5,0.002,3.567,0.632,3.524,3.354
	c-0.141,8.821-0.139,17.646-0.005,26.468c0.045,2.975-1.355,3.693-3.937,3.716c-6.656,0.058-13.316-0.208-19.971,0.149
	C328.922,414.473,328.408,414.283,328.081,413.586z"/>
<path fill-rule="evenodd" clip-rule="evenodd" fill="#5E5D5E" d="M251.058,388.005c0.162-2.72,0.325-5.439,0.488-8.159
	c0.236-0.062,0.41,0.016,0.521,0.233c2.299,0.727,4.601,0.652,6.905,0.029c0.308-0.171,0.629-0.203,0.964-0.096
	c0.922,2.655,0.805,5.32,0.078,7.991c-2.866,0.176-5.732,0.352-8.599,0.527c-0.278,0.061-0.556,0.121-0.834,0.182
	C250.739,388.478,250.898,388.241,251.058,388.005z"/>
<path fill-rule="evenodd" clip-rule="evenodd" fill="#5E565E" d="M251.516,414.047c-0.164-2.685-0.327-5.369-0.49-8.053
	c-0.535-0.643-0.388-0.907,0.44-0.794c2.678-0.04,5.355-0.08,8.033-0.119c1.835,2.895,1.14,5.899,0.389,8.906l0.101-0.096
	c-0.338,0.435-0.743,0.486-1.204,0.213c-0.8-0.931-0.871-2.088-1.004-3.232c-0.169-1.449-0.053-3.218-2.135-3.287
	c-2.021-0.066-2.238,1.55-2.38,3.082c-0.076,0.818-0.126,1.64-0.367,2.436c-0.178,0.45-0.448,0.835-0.815,1.149
	C251.905,414.152,251.716,414.084,251.516,414.047z"/>
<path fill-rule="evenodd" clip-rule="evenodd" fill="#020202" d="M259.887,413.987c0.032-2.976,0.535-5.972-0.388-8.906
	C262.116,407.941,261.47,410.944,259.887,413.987z"/>
<path fill-rule="evenodd" clip-rule="evenodd" fill="#020202" d="M260.013,388.004c-0.026-2.664-0.052-5.327-0.078-7.991
	C261.62,382.66,261.5,385.325,260.013,388.004z"/>
<path fill-rule="evenodd" clip-rule="evenodd" fill="#5E565E" d="M258.972,380.108c-2.308,1.343-4.61,1.403-6.906-0.029
	C254.368,380.089,256.67,380.099,258.972,380.108z"/>
<path fill-rule="evenodd" clip-rule="evenodd" fill="#5E5D5E" d="M258.989,413.838c-2.308,0.01-4.616,0.02-6.923,0.029
	c-0.011-1.48,0.068-2.969-0.055-4.439c-0.218-2.613,0.979-3.426,3.481-3.418c2.464,0.008,3.735,0.741,3.52,3.388
	C258.894,410.869,258.99,412.357,258.989,413.838z"/>
</svg>
